<svg id="Layer_1" enable-background="new 0 0 256 256" height="512" viewBox="0 0 256 256" width="512" xmlns="http://www.w3.org/2000/svg"><path d="m203.248 107.124c0 2.188-1.795 3.979-3.979 3.979h-134.285c-2.191 0-3.979-1.791-3.979-3.979v-11.937c0-2.187 1.787-3.979 3.979-3.979h134.286c2.184 0 3.979 1.792 3.979 3.979v11.937z" fill="#7fd57a"/><path d="m78.676 107.124c0 2.188-1.795 3.979-3.979 3.979h-9.713c-2.191 0-3.979-1.791-3.979-3.979v-11.937c0-2.187 1.787-3.979 3.979-3.979h9.713c2.184 0 3.979 1.792 3.979 3.979z" fill="#1d966a"/><path d="m79.205 111.103c0 .194-.031.385-.024.583l6.941 107.983c.279 4.367 4.094 7.942 8.469 7.942h74.541c4.375 0 8.189-3.575 8.469-7.942l6.941-107.983c.008-.198-.023-.389-.023-.583z" fill="#7fd57a"/><path d="m184.543 111.686c.008-.198-.023-.389-.023-.583h-91.188-14.127c0 .194-.031.385-.024.583l6.941 107.983c.279 4.367 4.094 7.942 8.469 7.942h14.129c-4.377 0-8.191-3.575-8.471-7.942l-6.248-97.229h89.848z" fill="#1d966a"/><path d="m141.281 112.892h-62.605c-.988 0-1.789-.801-1.789-1.789s.801-1.789 1.789-1.789h62.605c.988 0 1.789.801 1.789 1.789s-.8 1.789-1.789 1.789z" fill="#24202b"/><path d="m199.27 112.892h-134.286c-3.181 0-5.768-2.587-5.768-5.768v-11.937c0-3.18 2.587-5.768 5.768-5.768h134.286c3.181 0 5.768 2.587 5.768 5.768v11.938c-.001 3.179-2.588 5.767-5.768 5.767zm-134.286-19.895c-1.207 0-2.189.982-2.189 2.189v11.938c0 1.208.982 2.189 2.189 2.189h134.286c1.207 0 2.189-.982 2.189-2.189v-11.937c0-1.187-1.003-2.189-2.189-2.189h-134.286z" fill="#24202b"/><path d="m102.269 34.735c.404-3.225 2.729-6.011 6.078-6.769l17.424-3.954c3.348-.758 6.65.749 8.4 3.485l11.818-2.682c-3.443-9.144-13.07-14.664-22.863-12.446l-17.422 3.956c-9.783 2.219-16.094 11.361-15.256 21.091z" fill="#1d966a"/><path d="m92.199 37.021c1.631-7.224 7.104-13.268 14.797-15.014l17.422-3.956c7.693-1.744 15.238 1.349 19.824 7.161l1.748-.396c-3.443-9.144-13.07-14.664-22.863-12.446l-17.422 3.956c-9.783 2.219-16.094 11.361-15.256 21.091z" fill="#7fd57a"/><path d="m180.881 37.646-.076-.329c-2.434-10.718-13.086-17.431-23.803-15.003l-73.74 16.735c-10.709 2.428-17.422 13.087-14.998 23.803l.078.331z" fill="#1d966a"/><path d="m157.002 22.313-73.74 16.735c-10.709 2.429-17.422 13.088-14.998 23.804l.078.331 1.312-.296c1.113-7.945 6.955-14.765 15.238-16.65l73.74-16.73c8.291-1.881 16.506 1.753 20.938 8.439l1.311-.3-.076-.329c-2.434-10.718-13.086-17.431-23.803-15.004z" fill="#7fd57a"/><path d="m197.279 46.19c.965 4.267-1.732 8.553-5.998 9.52l-123.203 27.957c-4.266.967-8.549-1.733-9.52-5.999l-.879-3.883c-.971-4.266 1.732-8.551 6-9.52l123.194-27.955c4.268-.968 8.557 1.733 9.52 5.999z" fill="#7fd57a"/><path d="m78.365 81.25c-4.266.968-8.547-1.733-9.52-5.999l-.877-3.882c-.908-4.002 1.43-7.989 5.244-9.267l-9.533 2.163c-4.268.969-6.971 5.254-6 9.52l.879 3.883c.971 4.266 5.254 6.966 9.52 5.999l123.203-27.957c.262-.059.496-.167.746-.253z" fill="#1d966a"/><path d="m68.34 64.972c-.812 0-1.545-.556-1.739-1.378l-.078-.331c-2.642-11.68 4.691-23.317 16.344-25.958l5.723-1.299c-.142-10.125 6.815-19.177 16.721-21.423l17.421-3.956c9.908-2.243 20.088 2.922 24.329 12.113l9.546-2.17c11.662-2.642 23.297 4.694 25.943 16.352l.075.322c.106.463.025.95-.227 1.353s-.654.689-1.117.795l-1.311.3c-.002 0-.003 0-.004 0l-111.231 25.236c-.132.03-.264.044-.395.044zm59.062-51.291c-1.286 0-2.586.141-3.88.434l-17.421 3.956c-8.681 1.968-14.643 10.22-13.87 19.193.077.89-.515 1.7-1.386 1.898l-7.188 1.632c-9.255 2.098-15.246 10.993-13.913 20.238l108.938-24.72c-2.786-8.915-12.024-14.349-21.285-12.254l-11.011 2.503c-.87.197-1.756-.278-2.07-1.114-2.7-7.17-9.575-11.766-16.914-11.766zm-25.132 22.843c-.439 0-.869-.162-1.201-.463-.433-.392-.646-.969-.574-1.548.51-4.064 3.507-7.396 7.458-8.291l17.424-3.954c3.955-.895 8.099.819 10.303 4.266.314.491.369 1.104.148 1.643-.222.539-.691.937-1.26 1.065l-31.902 7.237c-.132.031-.265.045-.396.045zm25.216-10.914c-.438 0-.881.048-1.32.147l-17.423 3.954s0 0-.001 0c-1.537.348-2.845 1.285-3.696 2.559l25.562-5.799c-.941-.557-2.02-.861-3.122-.861zm-19.138 2.357h.01z" fill="#24202b"/><path d="m66.32 85.654c-4.448 0-8.479-3.072-9.506-7.589l-.88-3.885c-.575-2.527-.125-5.137 1.268-7.345 1.392-2.208 3.552-3.74 6.081-4.314l123.194-27.956c2.529-.574 5.14-.123 7.349 1.268 2.209 1.392 3.74 3.552 4.312 6.082.218.964-.388 1.921-1.352 2.139-.958.214-1.922-.387-2.139-1.351-.36-1.596-1.329-2.96-2.729-3.842-1.399-.882-3.05-1.17-4.649-.806l-123.194 27.955c-1.598.363-2.964 1.333-3.847 2.733-.882 1.399-1.168 3.049-.805 4.645l.88 3.885c.754 3.313 4.056 5.4 7.379 4.649l84.051-19.074c.958-.216 1.922.385 2.141 1.349.218.963-.386 1.922-1.35 2.141l-84.05 19.074c-.721.163-1.443.242-2.154.242z" fill="#24202b"/><path d="m69.842 89.988c0 4.721-3.824 8.545-8.549 8.545-4.717 0-8.541-3.824-8.541-8.545 0-4.717 3.824-8.54 8.541-8.54 4.725 0 8.549 3.823 8.549 8.54z" fill="#14a2ff"/><path d="m61.293 100.322c-5.696 0-10.33-4.636-10.33-10.334 0-5.695 4.634-10.329 10.33-10.329 5.7 0 10.338 4.634 10.338 10.329 0 5.699-4.638 10.334-10.338 10.334zm0-17.085c-3.723 0-6.752 3.028-6.752 6.751 0 3.725 3.029 6.756 6.752 6.756 3.728 0 6.76-3.031 6.76-6.756 0-3.722-3.032-6.751-6.76-6.751z" fill="#24202b"/><path d="m169.133 229.4h-74.541c-5.315 0-9.915-4.314-10.254-9.617l-6.942-107.983c-.01-.222-.001-.396.012-.569l.008-.129c0-.988.801-1.789 1.789-1.789h105.315c.988 0 1.789.801 1.789 1.789l.008.129c.013.173.021.347.015.524l-6.944 108.028c-.34 5.303-4.94 9.617-10.255 9.617zm-88.082-116.508 6.857 106.663c.218 3.398 3.278 6.268 6.684 6.268h74.541c3.405 0 6.466-2.87 6.684-6.268l6.856-106.663z" fill="#24202b"/><path d="m110.018 224.479c0 10.849-8.797 19.642-19.645 19.642-10.842 0-19.639-8.793-19.639-19.642 0-10.845 8.797-19.641 19.639-19.641 10.848 0 19.645 8.796 19.645 19.641z" fill="#c2cbe8"/><path d="m81.506 222.82c0-7.861 4.654-14.595 11.33-17.734-.816-.105-1.615-.248-2.463-.248-10.842 0-19.639 8.796-19.639 19.641 0 10.849 8.797 19.642 19.639 19.642 2.984 0 5.779-.714 8.314-1.907-9.666-1.221-17.181-9.389-17.181-19.394z" fill="#95a2c4"/><path d="m90.373 245.909c-11.815 0-21.428-9.614-21.428-21.431 0-11.816 9.612-21.43 21.428-21.43 11.818 0 21.434 9.613 21.434 21.43s-9.616 21.431-21.434 21.431zm0-39.282c-9.843 0-17.85 8.008-17.85 17.852s8.007 17.853 17.85 17.853c9.846 0 17.855-8.009 17.855-17.853.001-9.844-8.009-17.852-17.855-17.852z" fill="#24202b"/><path d="m98.922 224.852c0 4.693-3.801 8.497-8.496 8.497-4.693 0-8.492-3.804-8.492-8.497 0-4.69 3.799-8.494 8.492-8.494 4.695 0 8.496 3.804 8.496 8.494z" fill="#95a2c4"/><path d="m90.426 235.139c-5.669 0-10.281-4.614-10.281-10.286 0-5.67 4.612-10.283 10.281-10.283 5.671 0 10.285 4.613 10.285 10.283 0 5.671-4.614 10.286-10.285 10.286zm0-16.992c-3.696 0-6.703 3.008-6.703 6.705 0 3.699 3.007 6.708 6.703 6.708 3.698 0 6.707-3.009 6.707-6.708 0-3.697-3.009-6.705-6.707-6.705z" fill="#24202b"/></svg>