<svg id="Layer_1" enable-background="new 0 0 256 256" height="512" viewBox="0 0 256 256" width="512" xmlns="http://www.w3.org/2000/svg"><path d="m150.734 108.521c0-.007 0-.016 0-.027v-4.81c0-17.384-14.766-31.478-32.974-31.478-18.215 0-32.98 14.093-32.98 31.478v4.717c-15.619 1.325-27.921 14.279-27.921 30.237 0 16.832 13.654 30.494 30.492 30.494h26.081c1.282 0 2.495-.225 3.737-.385 1.244.16 2.456.385 3.737.385h26.08c16.841 0 30.485-13.662 30.485-30.494.002-15.558-11.693-28.251-26.737-30.117z" fill="#1d966a"/><path d="m150.734 108.521c0-.007 0-.016 0-.027v-4.81c0-17.384-14.766-31.478-32.974-31.478-18.215 0-32.98 14.093-32.98 31.478v4.717c-15.619 1.325-27.921 14.279-27.921 30.237 0 16.832 13.654 30.494 30.492 30.494h26.081c1.282 0 2.495-.225 3.737-.385 1.244.16 2.456.385 3.737.385h26.08c16.841 0 30.485-13.662 30.485-30.494.002-15.558-11.693-28.251-26.737-30.117z" fill="#1d966a"/><path d="m150.734 108.521c0-.007 0-.016 0-.027v-4.81c0-17.384-14.766-31.478-32.974-31.478-3.209 0-6.311.462-9.239 1.279 13.701 3.814 23.725 15.88 23.725 30.198v4.81.027c15.046 1.866 26.748 14.559 26.748 30.117 0 16.832-13.653 30.494-30.494 30.494h18.487c16.841 0 30.485-13.662 30.485-30.494.001-15.557-11.694-28.25-26.738-30.116z" fill="#7fd57a"/><path d="m94.945 169.132h7.476c-1.282 0-2.494-.225-3.738-.385-1.245.16-2.455.385-3.738.385z" fill="#7fd57a"/><path d="m146.987 170.921h-26.08c-1.113 0-2.141-.145-3.135-.286-.2-.028-.401-.057-.603-.084-.199.027-.398.055-.598.083-.995.141-2.024.286-3.14.286h-26.079c-17.8 0-32.281-14.482-32.281-32.283 0-16.275 11.891-29.688 27.921-31.841v-3.113c0-18.343 15.598-33.267 34.77-33.267 5.152 0 10.116 1.057 14.753 3.142.901.405 1.304 1.464.898 2.365s-1.465 1.302-2.365.898c-4.173-1.876-8.643-2.827-13.286-2.827-17.199 0-31.191 13.318-31.191 29.688v4.717c0 .929-.712 1.704-1.638 1.783-14.984 1.271-26.283 13.504-26.283 28.455 0 15.828 12.876 28.705 28.703 28.705h26.081c.863 0 1.726-.122 2.639-.251.289-.041.579-.082.87-.119.152-.02.306-.02.456 0 .293.038.585.079.876.12.911.129 1.772.25 2.634.25h26.08c15.823 0 28.696-12.877 28.696-28.705 0-.988.801-1.789 1.789-1.789s1.789.801 1.789 1.789c-.001 17.802-14.48 32.284-32.276 32.284z" fill="#24202b"/><path d="m147.113 135.958c1.196-1.193 1.196-3.117 0-4.305-1.183-1.186-3.101-1.186-4.29.007l-16.186 16.195v-24.433l9.705-9.706c1.431-1.426 1.431-3.734 0-5.161-1.422-1.426-3.729-1.426-5.159 0l-12.769 12.769h-.202l-12.774-12.769c-1.423-1.426-3.731-1.426-5.161 0-1.423 1.426-1.423 3.734 0 5.161l9.938 9.931v23.5l-15.48-15.488c-1.188-1.193-3.115-1.193-4.297-.007-1.188 1.189-1.188 3.112 0 4.305l19.777 19.781v71.723h-12.318c-1.927 0-3.488 1.559-3.488 3.498 0 1.927 1.562 3.489 3.488 3.489h40.45c1.934 0 3.496-1.562 3.496-3.489 0-1.939-1.562-3.498-3.496-3.498h-11.711v-71.023z" fill="#ff8b38"/><path d="m126.084 113.717-9.706 9.706v24.433l10.259-10.262v-14.17l9.705-9.706c1.431-1.426 1.431-3.734 0-5.161-1.422-1.426-3.729-1.426-5.159 0l-4.975 4.97c-.047.058-.069.135-.124.19z" fill="#f9a369"/><path d="m147.113 131.652c-1.183-1.186-3.101-1.186-4.29.007l-16.186 16.195v-1.675l-10.259 10.258v71.023h10.259v-71.023l20.477-20.481c1.196-1.192 1.196-3.115-.001-4.304z" fill="#f9a369"/><path d="m138.348 227.461h-10.26c1.936 0 3.497 1.559 3.497 3.498 0 1.927-1.561 3.489-3.497 3.489h10.26c1.934 0 3.496-1.562 3.496-3.489 0-1.939-1.562-3.498-3.496-3.498z" fill="#f9a369"/><path d="m138.348 236.237h-40.45c-2.91 0-5.277-2.368-5.277-5.278 0-2.915 2.367-5.287 5.277-5.287h10.528v-69.193l-19.253-19.256c-1.882-1.89-1.881-4.955 0-6.835.906-.91 2.117-1.412 3.407-1.412 1.293 0 2.508.505 3.422 1.422l12.424 12.43v-18.438l-9.414-9.406c-2.116-2.122-2.116-5.57-.002-7.69 2.128-2.122 5.578-2.12 7.694 0l11.608 11.604 11.605-11.605c1.03-1.028 2.396-1.593 3.848-1.593s2.817.566 3.843 1.595c1.027 1.024 1.596 2.391 1.596 3.844s-.568 2.819-1.6 3.847l-9.179 9.18v19.371l13.132-13.139c.913-.915 2.126-1.42 3.416-1.42 1.287 0 2.497.502 3.406 1.414.912.906 1.418 2.119 1.42 3.41.001 1.292-.504 2.508-1.421 3.424l-19.953 19.957v68.493h9.922c2.914 0 5.285 2.372 5.285 5.287.001 2.906-2.37 5.274-5.284 5.274zm-40.451-6.987c-.937 0-1.699.767-1.699 1.708 0 .938.763 1.7 1.699 1.7h40.45c.941 0 1.707-.762 1.707-1.7 0-.942-.766-1.708-1.707-1.708h-11.711c-.988 0-1.789-.801-1.789-1.789v-71.023c0-.475.188-.929.523-1.265l20.477-20.481c.001-.001.002-.001.002-.002.24-.239.372-.555.372-.889-.001-.332-.132-.644-.369-.88-.481-.482-1.289-.472-1.763.001l-16.188 16.197c-.514.512-1.283.665-1.95.388-.668-.277-1.104-.929-1.104-1.653v-24.433c0-.475.188-.93.524-1.265l9.705-9.706c.354-.354.549-.82.549-1.315 0-.496-.194-.962-.547-1.313-.709-.71-1.928-.704-2.633 0l-12.768 12.767c-.335.335-.79.524-1.265.524h-.202c-.475 0-.93-.188-1.265-.524l-12.774-12.769c-.727-.726-1.906-.724-2.633.001-.722.723-.722 1.904.003 2.63l9.937 9.929c.336.335.524.791.524 1.266v23.5c0 .724-.436 1.376-1.104 1.653-.671.277-1.438.124-1.95-.388l-15.48-15.488c-.239-.24-.554-.371-.889-.371-.332 0-.643.128-.875.362-.491.491-.49 1.288 0 1.78l19.774 19.778c.336.336.524.791.524 1.265v71.723c0 .988-.801 1.789-1.789 1.789h-12.316z" fill="#24202b"/><path d="m29.661 71.261c-.654 0-1.256-.357-1.57-.931l-4.668-8.543-8.547-4.671c-.573-.313-.931-.916-.931-1.57s.357-1.256.931-1.57l8.547-4.672 4.668-8.542c.315-.574.916-.931 1.57-.931.654 0 1.256.357 1.569.93l4.675 8.543 8.539 4.672c.574.313.931.916.931 1.569 0 .654-.356 1.256-.931 1.569l-8.539 4.671-4.675 8.544c-.313.575-.915.932-1.569.932z" fill="#b8dff4"/><path d="m29.661 41.62 4.926 9.003 8.999 4.923-8.999 4.922-4.926 9.003-4.92-9.003-9.007-4.922 9.007-4.923zm0-3.578c-1.309 0-2.513.714-3.14 1.862l-4.417 8.082-8.086 4.42c-1.149.627-1.862 1.832-1.862 3.14 0 1.309.714 2.512 1.862 3.14l8.086 4.419 4.417 8.083c.627 1.148 1.83 1.862 3.139 1.862h.001c1.308 0 2.511-.713 3.139-1.861l4.423-8.085 8.08-4.419c1.147-.628 1.861-1.831 1.861-3.139s-.714-2.511-1.861-3.139l-8.08-4.421-4.423-8.084c-.628-1.147-1.831-1.86-3.139-1.86z" fill="#24202b"/><path d="m171.056 60.062c-.653 0-1.255-.356-1.569-.929l-3.557-6.492-6.488-3.55c-.574-.313-.931-.916-.931-1.569s.357-1.256.931-1.569l6.488-3.549 3.557-6.493c.314-.573.916-.929 1.569-.929h.001c.653 0 1.255.358 1.568.931l3.55 6.492 6.486 3.548c.574.314.931.916.931 1.569s-.356 1.255-.931 1.569l-6.486 3.549-3.55 6.491c-.314.574-.915.931-1.569.931z" fill="#b8dff4"/><path d="m171.056 36.771 3.801 6.951 6.946 3.8-6.946 3.801-3.801 6.95-3.809-6.95-6.947-3.801 6.947-3.8zm0-3.578c-1.307 0-2.51.712-3.138 1.859l-3.306 6.033-6.029 3.298c-1.147.627-1.861 1.831-1.861 3.139s.714 2.511 1.86 3.139l6.03 3.298 3.306 6.033c.628 1.146 1.831 1.859 3.138 1.859h.001c1.308-.001 2.511-.714 3.139-1.861l3.298-6.031 6.027-3.298c1.148-.628 1.86-1.831 1.86-3.139s-.714-2.511-1.861-3.139l-6.026-3.297-3.298-6.031c-.628-1.147-1.831-1.861-3.138-1.862 0 0-.001 0-.002 0z" fill="#24202b"/><path d="m226.649 236.237h-211.171c-.988 0-1.789-.801-1.789-1.789s.801-1.789 1.789-1.789h211.172c.988 0 1.789.801 1.789 1.789s-.801 1.789-1.79 1.789z" fill="#24202b"/><path d="m202.443 103.225s-.226-.093-.334-.155c-.109-.054-.319-.183-.319-.183-12.434-6.699-17.642-19.409-17.642-19.409l13.072-11.691 16.217 8.284.662.335 16.226 8.287-1.819 17.443s-13.341 3.237-26.063-2.911z" fill="#ffdc00"/><path d="m202.443 103.225s-.226-.093-.334-.155c-.109-.054-.319-.183-.319-.183-12.434-6.699-17.642-19.409-17.642-19.409l13.072-11.691 16.217 8.284.662.335 16.226 8.287-1.819 17.443s-13.341 3.237-26.063-2.911z" fill="#ffdc00"/><path d="m207.05 105.056c-1.529-.49-3.068-1.088-4.606-1.831 0 0-.226-.093-.334-.155-.109-.054-.319-.183-.319-.183-12.434-6.699-17.642-19.409-17.642-19.409l13.072-11.691 9.45 4.821-13.072 11.693s4.026 9.826 13.451 16.755z" fill="#e0bb07"/><path d="m214.932 80.884-2.486-1.271-19.476-9.951 4.693-9.189s9.459-7.907 18.83-3.121l14.23-32.296s2.042-5.813 10.848-2.463c0 0 .902.311 1.298.54.412.186 1.188.73 1.188.73 7.88 5.172 4.368 10.238 4.368 10.238l-17.827 30.456c9.372 4.787 8.501 17.081 8.501 17.081l-4.694 9.193z" fill="#ff8b38"/><path d="m238.399 28.976-14.227 32.301c-9.373-4.788-18.829 3.12-18.829 3.12l-4.695 9.189-7.678-3.924 4.693-9.189s9.459-7.907 18.83-3.121l14.23-32.296s2.042-5.813 10.848-2.463c0 0 .902.311 1.298.54.412.186 1.188.73 1.188.73.941.614 1.702 1.227 2.34 1.827-6.405-1.221-7.998 3.286-7.998 3.286z" fill="#e57225"/><g fill="#24202b"><path d="m219.852 108.79c-5.073 0-11.664-.809-18.161-3.941-.094-.042-.266-.119-.395-.186-.161-.082-.439-.25-.439-.25-12.765-6.875-18.141-19.713-18.363-20.257-.287-.701-.102-1.507.463-2.012l13.072-11.691c.551-.493 1.35-.596 2.006-.26l33.104 16.907c.659.336 1.043 1.043.966 1.779l-1.819 17.443c-.078.753-.622 1.375-1.357 1.553-.289.069-3.89.915-9.077.915zm-33.521-24.863c1.572 3.163 6.723 12.222 16.308 17.385.091.053.202.122.273.159.12.062.207.098.216.101.031.013.063.027.094.042 9.841 4.756 20.167 3.605 23.643 3.019l1.555-14.905-30.92-15.79z"/><path d="m234.404 92.62c-.28 0-.56-.066-.813-.196l-19.473-9.947c-.001 0-.001 0-.001 0l-21.961-11.221c-.88-.45-1.229-1.527-.779-2.407l4.693-9.189c.109-.215.261-.405.445-.559.399-.334 9.383-7.707 19.061-4.104l13.49-30.618c.194-.501 1.147-2.621 3.729-3.82 2.528-1.173 5.693-1.052 9.41.362.188.063.968.341 1.48.62.517.25 1.193.714 1.396.857 3.281 2.153 5.237 4.647 5.769 7.384.544 2.797-.615 4.813-.907 5.264l-16.9 28.874c8.589 5.727 7.876 17.325 7.839 17.845-.017.24-.082.473-.19.687l-4.694 9.193c-.216.423-.591.742-1.043.889-.18.057-.365.086-.551.086zm-18.659-13.329 17.88 9.133 3.701-7.248c.036-1.893-.169-11.26-7.542-15.025-.438-.224-.766-.619-.903-1.091-.139-.472-.076-.981.173-1.406l17.827-30.456c.023-.04.048-.078.073-.115.227-.352 2.17-3.753-3.879-7.723-.379-.264-.807-.533-.943-.595-.054-.024-.11-.053-.161-.083-.142-.082-.646-.28-.983-.396-6.813-2.592-8.424.977-8.587 1.392-.009.024-.03.078-.041.102l-14.23 32.293c-.198.451-.573.799-1.037.964-.464.166-.976.131-1.413-.092-7.406-3.781-15.089 1.544-16.603 2.691l-3.7 7.247z"/><path d="m192.666 95.829c-.48 0-.96-.193-1.312-.573-.671-.725-.628-1.857.097-2.528l15.544-14.399c.725-.671 1.855-.628 2.528.097.671.725.628 1.857-.097 2.528l-15.544 14.399c-.345.318-.78.476-1.216.476z"/><path d="m214.964 106.845c-.11 0-.222-.01-.334-.032-.971-.184-1.609-1.119-1.426-2.09l3.722-19.688c.183-.971 1.12-1.611 2.09-1.425.971.184 1.609 1.119 1.426 2.09l-3.722 19.688c-.162.859-.913 1.457-1.756 1.457z"/></g><path d="m152.592 172.523v57.063c0 2.685 2.176 4.861 4.856 4.861h75.13c2.682 0 4.85-2.176 4.85-4.861v-57.063z" fill="#eee"/><path d="m152.592 172.523v57.063c0 2.685 2.176 4.861 4.856 4.861h8.689v-61.924z" fill="#c2cbe8"/><path d="m143.374 172.523c-2.672 0-3.061-1.251-.871-2.777l48.524-33.859c2.191-1.527 5.773-1.527 7.974 0l48.53 33.859c2.184 1.527 1.795 2.777-.878 2.777z" fill="#7fd57a"/><path d="m158.271 169.746 44.629-31.135-3.899-2.724c-2.201-1.527-5.782-1.527-7.974 0l-48.524 33.859c-2.19 1.527-1.801 2.777.871 2.777h15.768c-2.672 0-3.069-1.25-.871-2.777z" fill="#1d966a"/><path d="m228.382 234.425v-22.898c0-7.045-5.704-12.748-12.743-12.748-7.033 0-12.738 5.703-12.738 12.748v22.898z" fill="#ff8b38"/><path d="m230.171 236.214h-29.06v-24.687c0-8.016 6.517-14.537 14.527-14.537 8.013 0 14.532 6.521 14.532 14.537v24.687zm-25.482-3.578h21.903v-21.108c0-6.043-4.914-10.959-10.954-10.959-6.037 0-10.949 4.916-10.949 10.959z" fill="#24202b"/><path d="m232.578 236.237h-75.13c-3.664 0-6.646-2.983-6.646-6.65v-57.063c0-.988.801-1.789 1.789-1.789h84.836c.988 0 1.789.801 1.789 1.789v57.063c.001 3.666-2.978 6.65-6.638 6.65zm-78.197-61.925v55.274c0 1.694 1.376 3.072 3.067 3.072h75.13c1.688 0 3.061-1.378 3.061-3.072v-55.274z" fill="#24202b"/><path d="m246.653 174.312h-103.279c-2.74 0-3.669-1.125-3.966-2.068-.296-.944-.178-2.398 2.071-3.966l48.524-33.858c2.804-1.954 7.203-1.956 10.017-.002l48.534 33.861c2.245 1.57 2.362 3.023 2.065 3.966s-1.225 2.067-3.966 2.067zm-102.44-3.578h101.608l-47.844-33.38c-1.581-1.097-4.353-1.098-5.928 0z" fill="#24202b"/><path d="m222.579 221.651c-.988 0-1.789-.801-1.789-1.789v-3.256c0-.988.801-1.789 1.789-1.789s1.789.801 1.789 1.789v3.256c0 .988-.801 1.789-1.789 1.789z" fill="#24202b"/><path d="m194.058 211.749c0 2.682-2.175 4.857-4.855 4.857h-23.446c-2.681 0-4.857-2.176-4.857-4.857v-23.445c0-2.681 2.177-4.857 4.857-4.857h23.446c2.681 0 4.855 2.176 4.855 4.857z" fill="#14a2ff"/><path d="m194.058 188.303c0-2.681-2.175-4.857-4.855-4.857h-7.361l-20.756 29.565c.559 2.067 2.425 3.594 4.671 3.594h13.52l14.781-21.697z" fill="#14a2ff"/><path d="m165.756 183.446c-2.681 0-4.857 2.176-4.857 4.857v15.515l14.438-20.372z" fill="#14a2ff"/><path d="m179.276 216.606h8.177l6.605-9.582v-12.115z" fill="#b8dff4"/><path d="m175.336 183.446-14.438 20.372v7.931c0 .443.077.859.187 1.263l20.756-29.565h-6.505z" fill="#b8dff4"/><path d="m189.202 218.395h-23.446c-3.665 0-6.646-2.981-6.646-6.646v-23.445c0-3.665 2.981-6.646 6.646-6.646h23.446c3.664 0 6.645 2.981 6.645 6.646v23.445c0 3.665-2.981 6.646-6.645 6.646zm-23.446-33.16c-1.692 0-3.068 1.376-3.068 3.068v23.445c0 1.692 1.376 3.068 3.068 3.068h23.446c1.69 0 3.066-1.376 3.066-3.068v-23.445c0-1.692-1.376-3.068-3.066-3.068z" fill="#24202b"/><path d="m194.058 201.814h-33.159c-.988 0-1.789-.801-1.789-1.789s.801-1.789 1.789-1.789h33.159c.988 0 1.789.801 1.789 1.789s-.801 1.789-1.789 1.789z" fill="#24202b"/><path d="m177.473 218.395c-.988 0-1.789-.801-1.789-1.789v-33.16c0-.988.801-1.789 1.789-1.789s1.789.801 1.789 1.789v33.16c0 .988-.801 1.789-1.789 1.789z" fill="#24202b"/><path d="m33.965 234.448v-69.493c0-5.106-4.134-9.243-9.239-9.243s-9.248 4.137-9.248 9.243v69.493z" fill="#fa759e"/><path d="m27.521 156.189c-.885-.284-1.816-.478-2.796-.478-5.105 0-9.248 4.137-9.248 9.243v69.493h5.61v-69.493c.001-4.121 2.713-7.572 6.434-8.765z" fill="#dd5e8c"/><path d="m67.257 234.448v-69.493c0-5.106-4.135-9.243-9.24-9.243s-9.247 4.137-9.247 9.243v69.493z" fill="#fa759e"/><path d="m61.04 156.259c-.947-.331-1.96-.547-3.023-.547-5.105 0-9.247 4.137-9.247 9.243v69.493h6.054v-69.493c-.001-4.04 2.61-7.437 6.216-8.696z" fill="#dd5e8c"/><path d="m100.547 234.448v-69.493c0-5.106-4.133-9.243-9.238-9.243-5.107 0-9.248 4.137-9.248 9.243v69.493z" fill="#fa759e"/><path d="m94.999 156.488c-1.134-.493-2.379-.776-3.69-.776-5.107 0-9.248 4.137-9.248 9.243v69.493h7.382v-69.493c-.001-3.792 2.284-7.04 5.556-8.467z" fill="#dd5e8c"/><path d="m33.965 236.237h-18.487c-.988 0-1.789-.801-1.789-1.789v-69.493c0-6.083 4.951-11.032 11.037-11.032 6.081 0 11.028 4.949 11.028 11.032v69.493c0 .988-.801 1.789-1.789 1.789zm-16.698-3.578h14.909v-67.704c0-4.11-3.342-7.454-7.45-7.454-4.113 0-7.459 3.344-7.459 7.454z" fill="#24202b"/><path d="m67.257 236.237h-18.487c-.988 0-1.789-.801-1.789-1.789v-69.493c0-6.083 4.951-11.032 11.036-11.032 6.081 0 11.029 4.949 11.029 11.032v69.493c0 .988-.801 1.789-1.789 1.789zm-16.698-3.578h14.909v-67.704c0-4.11-3.343-7.454-7.451-7.454-4.112 0-7.458 3.344-7.458 7.454z" fill="#24202b"/><path d="m100.547 236.237h-18.486c-.988 0-1.789-.801-1.789-1.789v-69.493c0-6.083 4.951-11.032 11.037-11.032 6.08 0 11.027 4.949 11.027 11.032v69.493c0 .988-.801 1.789-1.789 1.789zm-16.697-3.578h14.908v-67.704c0-4.11-3.342-7.454-7.449-7.454-4.113 0-7.459 3.344-7.459 7.454z" fill="#24202b"/><path d="m106.089 180.804c0 3.874-3.141 7.009-7.009 7.009h-85.272c-3.879 0-7.012-3.136-7.012-7.009 0-3.87 3.133-7.01 7.012-7.01h85.272c3.868 0 7.009 3.14 7.009 7.01z" fill="#fa759e"/><path d="m99.08 183.151h-85.272c-3.055 0-5.619-1.958-6.584-4.678-.263.735-.428 1.512-.428 2.331 0 3.874 3.133 7.009 7.012 7.009h85.272c3.868 0 7.009-3.136 7.009-7.009 0-.82-.172-1.597-.428-2.331-.964 2.719-3.535 4.678-6.581 4.678z" fill="#dd5e8c"/><path d="m106.089 213.151c0 3.87-3.141 7.009-7.009 7.009h-85.272c-3.879 0-7.012-3.139-7.012-7.009 0-3.874 3.133-7.01 7.012-7.01h85.272c3.868.001 7.009 3.136 7.009 7.01z" fill="#fa759e"/><path d="m99.08 215.521h-85.272c-3.055 0-5.628-1.965-6.59-4.69-.257.73-.422 1.5-.422 2.32 0 3.87 3.133 7.009 7.012 7.009h85.272c3.868 0 7.009-3.139 7.009-7.009 0-.82-.172-1.589-.428-2.32-.956 2.725-3.528 4.69-6.581 4.69z" fill="#dd5e8c"/><path d="m99.08 189.603h-85.272c-4.853 0-8.801-3.947-8.801-8.798s3.948-8.799 8.801-8.799h85.272c4.852 0 8.798 3.947 8.798 8.799s-3.946 8.798-8.798 8.798zm-85.272-14.02c-2.88 0-5.223 2.342-5.223 5.221 0 2.878 2.343 5.22 5.223 5.22h85.272c2.878 0 5.22-2.342 5.22-5.22 0-2.879-2.342-5.221-5.22-5.221z" fill="#24202b"/><path d="m99.08 221.95h-85.272c-4.853 0-8.801-3.947-8.801-8.798s3.948-8.799 8.801-8.799h85.272c4.852 0 8.798 3.947 8.798 8.799s-3.946 8.798-8.798 8.798zm-85.272-14.019c-2.88 0-5.223 2.342-5.223 5.221 0 2.878 2.343 5.22 5.223 5.22h85.272c2.878 0 5.22-2.342 5.22-5.22 0-2.879-2.342-5.221-5.22-5.221z" fill="#24202b"/></svg>