<svg id="Layer_1" enable-background="new 0 0 256 256" height="512" viewBox="0 0 256 256" width="512" xmlns="http://www.w3.org/2000/svg"><path d="m35.065 56.981c-.654 0-1.256-.357-1.569-.931l-4.667-8.543-8.546-4.671c-.574-.314-.931-.916-.931-1.57s.357-1.256.931-1.57l8.546-4.672 4.667-8.542c.313-.574.915-.931 1.569-.931h.001c.654 0 1.255.356 1.569.93l4.675 8.543 8.54 4.672c.573.313.93.916.93 1.569 0 .654-.357 1.256-.931 1.569l-8.54 4.672-4.675 8.544c-.313.575-.915.931-1.569.931z" fill="#b8dff4"/><path d="m35.065 27.34 4.927 9.003 8.999 4.923-8.999 4.923-4.927 9.003-4.919-9.003-9.007-4.923 9.007-4.923zm0-3.578c-.001 0-.001 0-.001 0-1.308 0-2.511.715-3.139 1.862l-4.415 8.082-8.087 4.42c-1.148.627-1.862 1.832-1.862 3.14s.714 2.512 1.862 3.14l8.086 4.419 4.415 8.083c.627 1.148 1.831 1.862 3.139 1.863h.001c1.308 0 2.511-.713 3.139-1.86l4.424-8.085 8.08-4.42c1.147-.628 1.861-1.832 1.861-3.139 0-1.308-.713-2.511-1.861-3.139l-8.08-4.42-4.424-8.084c-.627-1.148-1.83-1.862-3.138-1.862z" fill="#24202b"/><path d="m176.461 45.783c-.653 0-1.255-.356-1.569-.93l-3.556-6.492-6.489-3.549c-.574-.313-.931-.916-.931-1.569 0-.654.357-1.256.931-1.57l6.489-3.548 3.556-6.493c.314-.573.915-.93 1.569-.93h.001c.654 0 1.256.358 1.569.931l3.548 6.492 6.488 3.548c.574.314.931.916.931 1.57s-.357 1.256-.931 1.569l-6.488 3.549-3.548 6.491c-.314.573-.915.93-1.57.931z" fill="#b8dff4"/><path d="m176.461 22.491 3.8 6.952 6.948 3.8-6.948 3.8-3.8 6.951-3.808-6.951-6.948-3.8 6.948-3.8zm0-3.578c-1.307 0-2.51.713-3.138 1.859l-3.305 6.033-6.03 3.298c-1.148.628-1.861 1.831-1.861 3.139s.714 2.512 1.861 3.139l6.03 3.298 3.305 6.033c.628 1.146 1.831 1.859 3.138 1.859h.001c1.308 0 2.511-.714 3.138-1.862l3.297-6.031 6.028-3.297c1.147-.627 1.861-1.832 1.861-3.139 0-1.308-.714-2.512-1.861-3.139l-6.028-3.297-3.297-6.032c-.628-1.147-1.831-1.861-3.138-1.862 0 .001-.001.001-.001.001z" fill="#24202b"/><path d="m186.008 102.414s-.226-.094-.334-.156c-.109-.054-.318-.182-.318-.182-12.435-6.699-17.641-19.408-17.641-19.408l13.07-11.692 16.219 8.285.66.333 16.227 8.289-1.818 17.442c-.001-.001-13.345 3.235-26.065-2.911z" fill="#ffdc00"/><path d="m186.008 102.414s-.226-.094-.334-.156c-.109-.054-.318-.182-.318-.182-12.435-6.699-17.641-19.408-17.641-19.408l13.07-11.692 16.219 8.285.66.333 16.227 8.289-1.818 17.442c-.001-.001-13.345 3.235-26.065-2.911z" fill="#ffdc00"/><path d="m190.616 104.244c-1.531-.489-3.07-1.088-4.608-1.83 0 0-.226-.094-.334-.156-.109-.054-.318-.182-.318-.182-12.435-6.699-17.641-19.408-17.641-19.408l13.07-11.692 9.45 4.822-13.071 11.692c0-.001 4.025 9.825 13.452 16.754z" fill="#e0bb07"/><path d="m198.496 80.071-2.487-1.271-19.474-9.951 4.693-9.189s9.457-7.907 18.829-3.12l14.23-32.296s2.044-5.812 10.849-2.464c0 0 .901.311 1.297.541.412.185 1.189.73 1.189.73 7.879 5.172 4.367 10.238 4.367 10.238l-17.827 30.455c9.372 4.788 8.502 17.082 8.502 17.082l-4.693 9.193z" fill="#ff8b38"/><path d="m221.965 28.165-14.229 32.3c-9.372-4.786-18.828 3.121-18.828 3.121l-4.694 9.189-7.678-3.925 4.693-9.189s9.457-7.907 18.829-3.12l14.23-32.296s2.044-5.812 10.849-2.464c0 0 .901.311 1.297.541.412.185 1.189.73 1.189.73.94.614 1.701 1.228 2.339 1.826-6.404-1.222-7.997 3.287-7.997 3.287z" fill="#e57225"/><g fill="#24202b"><path d="m203.416 107.978c-5.074 0-11.666-.809-18.163-3.941-.093-.042-.269-.121-.398-.188-.162-.083-.434-.247-.434-.247-12.765-6.874-18.14-19.713-18.362-20.256-.287-.701-.102-1.507.462-2.012l13.07-11.692c.551-.492 1.348-.596 2.007-.26l33.105 16.907c.658.336 1.042 1.043.965 1.779l-1.818 17.442c-.079.753-.622 1.375-1.357 1.553-.287.069-3.889.915-9.077.915zm-33.519-24.863c1.571 3.162 6.721 12.221 16.307 17.385.092.053.202.122.273.159.125.065.22.104.22.104.035.014.055.023.089.04 9.839 4.754 20.168 3.605 23.644 3.019l1.554-14.905-30.92-15.791z"/><path d="m217.971 91.807c-.28 0-.56-.066-.814-.196l-19.475-9.947-21.961-11.222c-.88-.45-1.229-1.527-.779-2.407l4.693-9.189c.109-.214.261-.404.446-.559.399-.333 9.384-7.705 19.06-4.103l13.49-30.618c.195-.501 1.148-2.621 3.732-3.821 2.528-1.173 5.693-1.051 9.409.362.188.064.967.342 1.479.621.517.249 1.194.714 1.398.857 3.281 2.152 5.236 4.647 5.768 7.383.543 2.798-.616 4.814-.907 5.265l-16.901 28.872c8.589 5.728 7.877 17.326 7.84 17.846-.017.239-.082.473-.191.687l-4.693 9.193c-.216.423-.59.742-1.042.889-.181.058-.367.087-.552.087zm-18.661-13.329 17.881 9.133 3.7-7.248c.037-1.892-.169-11.26-7.543-15.026-.438-.224-.765-.619-.903-1.091s-.075-.981.173-1.406l17.827-30.455c.023-.04.048-.078.074-.115.226-.352 2.17-3.753-3.879-7.724-.378-.264-.806-.533-.942-.594-.054-.024-.112-.054-.164-.084-.142-.082-.645-.281-.983-.397-2.792-1.061-5.085-1.221-6.683-.479-1.424.661-1.89 1.834-1.894 1.846-.015.043-.032.086-.05.128l-14.229 32.296c-.199.451-.574.799-1.038.964-.464.166-.975.131-1.414-.092-7.369-3.764-15.082 1.55-16.602 2.693l-3.7 7.243z"/><path d="m176.232 95.017c-.481 0-.96-.193-1.313-.573-.671-.725-.628-1.856.097-2.528l15.542-14.399c.724-.671 1.857-.628 2.528.097s.628 1.856-.097 2.528l-15.542 14.398c-.344.319-.78.477-1.215.477z"/><path d="m198.528 106.033c-.11 0-.222-.01-.334-.032-.971-.184-1.609-1.119-1.425-2.09l3.723-19.688c.184-.971 1.12-1.612 2.09-1.425.971.184 1.609 1.119 1.425 2.09l-3.723 19.688c-.162.859-.913 1.457-1.756 1.457z"/></g><path d="m192.282 128.023c-4.374 0-7.957-2.689-7.957-5.976s3.583-5.976 7.957-5.976h23.372c4.38 0 7.958 2.689 7.958 5.976s-3.578 5.976-7.958 5.976z" fill="#7d50c7"/><path d="m143.769 96.355-10.018 5.429 9.356 17.275 10.017-5.428c4.771-2.584 6.543-8.545 3.964-13.316-2.588-4.771-8.549-6.543-13.319-3.96z" fill="#603da3"/><path d="m157.088 100.314c-2.588-4.771-8.549-6.542-13.319-3.959l-3.972 2.149c4.682-2.203 10.316-.432 12.814 4.173 2.58 4.771.808 10.732-3.964 13.316l4.477-2.363c4.771-2.584 6.543-8.544 3.964-13.316z" fill="#7d50c7"/><path d="m143.107 120.848c-.171 0-.343-.024-.51-.074-.455-.135-.837-.446-1.063-.863l-9.356-17.275c-.47-.869-.147-1.954.721-2.425l10.018-5.429c5.628-3.047 12.691-.948 15.744 4.679 3.045 5.633.943 12.694-4.685 15.743l-10.016 5.428c-.264.143-.558.216-.853.216zm-6.931-18.343 7.652 14.129 8.443-4.576c3.895-2.109 5.349-6.996 3.243-10.893-2.111-3.893-7-5.345-10.894-3.236z" fill="#24202b"/><path d="m170.303 135.493c-.988 0-1.789-.801-1.789-1.789v-14.078l-12.888-18.281c-.569-.808-.376-1.924.432-2.493.807-.569 1.923-.376 2.493.432l13.215 18.745c.212.302.327.662.327 1.031v14.645c-.001.987-.802 1.788-1.79 1.788z" fill="#24202b"/><path d="m177.347 139.979c.109-.404.249-.796.249-1.231 0-2.786-2.254-5.043-5.039-5.043h-11.622c-2.783 0-5.04 2.257-5.04 5.043 0 .435.145.828.249 1.231z" fill="#7d50c7"/><path d="m177.347 141.768h-21.203c-.815 0-1.528-.551-1.732-1.341l-.062-.224c-.109-.387-.245-.868-.245-1.456 0-3.767 3.063-6.832 6.829-6.832h11.622c3.765 0 6.828 3.065 6.828 6.832 0 .607-.143 1.105-.257 1.505l-.055.194c-.21.78-.917 1.322-1.725 1.322zm-19.616-3.579h18.027c-.265-1.53-1.6-2.696-3.202-2.696h-11.622c-1.602 0-2.938 1.167-3.203 2.696z" fill="#24202b"/><path d="m132.434 84.625c0 6.602-5.354 11.956-11.956 11.956h-15.379c-6.601 0-11.956-5.355-11.956-11.956 0-6.605 5.355-11.96 11.956-11.96h15.379c6.602 0 11.956 5.355 11.956 11.96z" fill="#7fd57a"/><path d="m102.585 84.625c0-6.605 5.353-11.96 11.955-11.96h-9.441c-6.601 0-11.956 5.354-11.956 11.96 0 6.602 5.355 11.956 11.956 11.956h9.441c-6.602 0-11.955-5.354-11.955-11.956z" fill="#1d966a"/><path d="m137.656 139.979v-23.503c0-10.988-8.91-19.894-19.895-19.894h-9.946c-10.985 0-19.895 8.905-19.895 19.894v23.503z" fill="#7fd57a"/><path d="m117.248 96.581h-9.433c-10.985 0-19.895 8.905-19.895 19.894v23.503h9.434v-23.503c0-10.988 8.911-19.894 19.894-19.894z" fill="#1d966a"/><path d="m137.656 141.768h-49.735c-.988 0-1.789-.801-1.789-1.789v-23.503c0-11.956 9.727-21.683 21.684-21.683h9.946c11.957 0 21.684 9.727 21.684 21.683v23.503c-.001.988-.802 1.789-1.79 1.789zm-47.946-3.579h46.157v-21.714c0-9.983-8.122-18.104-18.105-18.104h-9.946c-9.983 0-18.105 8.122-18.105 18.104v21.714z" fill="#24202b"/><path d="m112.789 141.768c-.988 0-1.789-.801-1.789-1.789v-21.697c0-.988.801-1.789 1.789-1.789s1.789.801 1.789 1.789v21.697c0 .988-.801 1.789-1.789 1.789z" fill="#24202b"/><path d="m215.654 129.812h-23.372c-5.374 0-9.746-3.483-9.746-7.765v-5.976c0-.988.801-1.789 1.789-1.789s1.789.801 1.789 1.789v5.976c0 2.27 2.825 4.187 6.168 4.187h23.372c3.344 0 6.169-1.917 6.169-4.187v-5.976c0-.988.801-1.789 1.789-1.789s1.789.801 1.789 1.789v5.976c0 4.281-4.372 7.765-9.747 7.765z" fill="#24202b"/><path d="m192.282 139.979c-4.374 0-7.957-2.689-7.957-5.98 0-3.287 3.583-5.976 7.957-5.976h23.372c4.38 0 7.958 2.689 7.958 5.976 0 3.291-3.578 5.98-7.958 5.98z" fill="#e8c205"/><path d="m215.654 141.768h-23.372c-5.374 0-9.746-3.485-9.746-7.769 0-4.282 4.372-7.766 9.746-7.766h23.372c5.375 0 9.747 3.484 9.747 7.766 0 4.284-4.372 7.769-9.747 7.769zm-23.372-11.956c-3.343 0-6.168 1.917-6.168 4.188s2.825 4.19 6.168 4.19h23.372c3.344 0 6.169-1.919 6.169-4.19 0-2.27-2.825-4.188-6.169-4.188z" fill="#24202b"/><path d="m120.478 98.371h-15.379c-7.579 0-13.745-6.167-13.745-13.746 0-7.581 6.166-13.749 13.745-13.749h7.507c.988 0 1.789.801 1.789 1.789s-.801 1.789-1.789 1.789h-7.507c-5.606 0-10.167 4.562-10.167 10.17 0 5.606 4.561 10.167 10.167 10.167h15.379c5.606 0 10.167-4.561 10.167-10.167 0-.988.801-1.789 1.789-1.789s1.789.801 1.789 1.789c0 7.58-6.166 13.747-13.745 13.747z" fill="#24202b"/><path d="m44.633 156.469v70.834c0 4.395 3.566 7.958 7.957 7.958h160.963c4.391 0 7.957-3.563 7.957-7.958v-70.834z" fill="#fa759e"/><path d="m221.51 169.731v-13.262h-163.52-13.357v13.262 57.572c0 4.395 3.566 7.958 7.957 7.958h13.358c-4.398 0-7.958-3.563-7.958-7.958v-57.572z" fill="#dd5e8c"/><path d="m234.86 148.511c0 4.395-3.56 7.958-7.957 7.958h-187.664c-4.398 0-7.958-3.563-7.958-7.958v-.385c0-4.395 3.559-7.957 7.958-7.957h187.664c4.397 0 7.957 3.562 7.957 7.957z" fill="#14a2ff"/><path d="m39.899 148.511v-.385c0-4.395 3.566-7.957 7.957-7.957h-8.617c-4.398 0-7.958 3.562-7.958 7.957v.385c0 4.395 3.559 7.958 7.958 7.958h8.617c-4.39 0-7.957-3.563-7.957-7.958z" fill="#098dd6"/><path d="m101.672 118.868c0 4.376-3.582 7.958-7.958 7.958h-59.189c-4.379 0-7.958-3.582-7.958-7.958v-23.418c0-4.375 3.579-7.957 7.958-7.957h59.188c4.376 0 7.958 3.582 7.958 7.957v23.418z" fill="#c2cbe8"/><path d="m32.649 87.741c.605-.147 1.228-.248 1.876-.248-.648 0-1.27.101-1.876.248z" fill="#95a2c4"/><path d="m30.853 88.437c.42-.222.863-.4 1.321-.548-.457.144-.901.326-1.321.548z" fill="#95a2c4"/><path d="m30.488 88.639c.116-.074.241-.136.365-.202-.124.066-.249.128-.365.202z" fill="#eee"/><path d="m93.714 87.493h-51.764c-2.657 0-5.004 1.329-6.453 3.345h53.904c4.379 0 7.957 3.582 7.957 7.957v23.419c0 1.542-.458 2.972-1.228 4.191 3.198-1.032 5.541-4.009 5.541-7.538v-23.417c.001-4.375-3.581-7.957-7.957-7.957z" fill="#eee"/><path d="m32.175 87.889c.159-.05.311-.108.475-.147-.165.038-.316.096-.475.147z" fill="#eee"/><path d="m33.993 118.868v-23.418c0-1.722.567-3.306 1.504-4.612 1.449-2.017 3.796-3.345 6.453-3.345h-7.425c-.648 0-1.271.101-1.876.248-.164.039-.315.097-.475.147-.458.148-.901.327-1.321.548-.124.066-.249.128-.365.202-.56.338-1.073.742-1.538 1.197-.202.201-.357.447-.544.672-.202.249-.436.474-.607.75.008-.003.023-.003.031-.008-.781 1.221-1.264 2.647-1.264 4.201v23.418c0 4.376 3.579 7.958 7.958 7.958h7.425c-4.378 0-7.956-3.582-7.956-7.958z" fill="#95a2c4"/><path d="m93.714 128.615h-59.189c-5.375 0-9.747-4.373-9.747-9.747v-23.418c0-5.374 4.373-9.746 9.747-9.746h9.664c.988 0 1.789.801 1.789 1.789s-.801 1.789-1.789 1.789h-9.664c-3.401 0-6.169 2.767-6.169 6.168v23.418c0 3.401 2.768 6.169 6.169 6.169h59.188c3.401 0 6.169-2.768 6.169-6.169v-23.418c0-.988.801-1.789 1.789-1.789s1.789.801 1.789 1.789v23.418c.001 5.375-4.372 9.747-9.746 9.747z" fill="#24202b"/><path d="m71.544 140.169v-31.399c0-4.375-3.343-7.957-7.422-7.957-4.084 0-7.422 3.582-7.422 7.957v31.399z" fill="#c2cbe8"/><path d="m66.713 101.344c-.812-.33-1.678-.532-2.591-.532-4.084 0-7.422 3.582-7.422 7.957v31.399h5.183v-31.398c0-3.397 2.021-6.291 4.83-7.426z" fill="#95a2c4"/><path d="m71.544 141.958h-14.844c-.988 0-1.789-.801-1.789-1.789v-31.399c0-5.374 4.132-9.747 9.211-9.747s9.211 4.373 9.211 9.747v31.399c0 .989-.801 1.789-1.789 1.789zm-13.055-3.578h11.266v-29.61c0-3.401-2.527-6.168-5.633-6.168s-5.633 2.767-5.633 6.168z" fill="#24202b"/><path d="m213.553 237.049h-160.963c-5.374 0-9.746-4.373-9.746-9.747v-70.833c0-.988.801-1.789 1.789-1.789h176.877c.988 0 1.789.801 1.789 1.789v70.833c0 5.375-4.372 9.747-9.746 9.747zm-167.131-78.791v69.044c0 3.401 2.767 6.168 6.168 6.168h160.963c3.401 0 6.168-2.767 6.168-6.168v-69.044z" fill="#24202b"/><path d="m226.903 158.258h-187.664c-5.375 0-9.747-4.373-9.747-9.747v-.385c0-5.374 4.373-9.746 9.747-9.746h187.664c5.374 0 9.746 4.372 9.746 9.746v.385c0 5.375-4.372 9.747-9.746 9.747zm-187.664-16.3c-3.402 0-6.169 2.767-6.169 6.168v.385c0 3.401 2.767 6.169 6.169 6.169h187.664c3.401 0 6.168-2.768 6.168-6.169v-.385c0-3.401-2.767-6.168-6.168-6.168z" fill="#24202b"/></svg>