<svg id="Layer_1" enable-background="new 0 0 256 256" height="512" viewBox="0 0 256 256" width="512" xmlns="http://www.w3.org/2000/svg"><path d="m194 152.689v-8.16c0-10.988-8.91-19.893-19.895-19.893h-90.187c-10.984 0-19.895 8.905-19.895 19.893v8.16z" fill="#14a2ff"/><path d="m97.18 124.636h-13.262c-10.984 0-19.895 8.905-19.895 19.893v8.16h13.262v-8.16c0-10.988 8.909-19.893 19.895-19.893z" fill="#098dd6"/><path d="m64.023 152.689h129.977v15.814h-129.977z" fill="#fa759e"/><path d="m64.023 152.689h18.566v15.814h-18.566z" fill="#dd5e8c"/><path d="m194 154.478h-129.977c-.988 0-1.789-.801-1.789-1.789v-8.16c0-11.956 9.727-21.682 21.684-21.682h62.336c.988 0 1.789.801 1.789 1.789s-.801 1.789-1.789 1.789h-62.336c-9.983 0-18.105 8.122-18.105 18.104v6.371h126.398v-6.371c0-.988.801-1.789 1.789-1.789s1.789.801 1.789 1.789v8.16c0 .987-.801 1.789-1.789 1.789z" fill="#24202b"/><path d="m198.795 172.481c0-2.191-1.791-3.979-3.979-3.979h-131.612c-2.188 0-3.979 1.787-3.979 3.979v26.523c0 2.192 1.383 3.979 3.077 3.979s3.077 1.794 3.077 3.979v6.808c0 2.192 1.796 3.979 3.979 3.979h1.989c2.19 0 4.293-1.765 4.678-3.917l1.232-6.932c.385-2.153 2.487-3.917 4.674-3.917h96.175c2.191 0 4.294 1.764 4.678 3.917l1.233 6.932c.384 2.152 2.486 3.917 4.674 3.917h1.989c2.188 0 3.979-1.787 3.979-3.979v-6.808c0-2.184.932-3.979 2.066-3.979 1.135 0 2.067-1.787 2.067-3.979v-26.523z" fill="#14a2ff"/><path d="m178.107 202.983c2.191 0 4.294 1.764 4.678 3.917l1.233 6.932c.384 2.152 2.486 3.917 4.674 3.917h1.989c2.188 0 3.979-1.787 3.979-3.979v-6.808c0-1.531.469-2.828 1.134-3.497-.599-.279-1.231-.481-1.889-.481h-15.798z" fill="#098dd6"/><path d="m194.816 168.503h-115.817-15.795c-2.188 0-3.979 1.787-3.979 3.979v5.596 20.927c0 2.192 1.383 3.979 3.077 3.979s3.077 1.794 3.077 3.979v6.808c0 2.192 1.796 3.979 3.979 3.979h1.989c2.19 0 4.293-1.765 4.678-3.917l1.232-6.932c.245-1.376 1.228-2.534 2.451-3.233-.475-.396-1.01-.684-1.612-.684-1.689 0-3.077-1.787-3.077-3.979v-16.949h119.796c2.188 0 3.979-1.795 3.979-3.979v-5.596c.001-2.191-1.79-3.978-3.978-3.978z" fill="#098dd6"/><path d="m190.682 219.538h-1.989c-3.069 0-5.896-2.369-6.435-5.392l-1.233-6.932c-.232-1.3-1.595-2.441-2.917-2.441h-96.175c-1.319 0-2.68 1.142-2.913 2.442l-1.232 6.93c-.541 3.025-3.369 5.393-6.439 5.393h-1.989c-3.181 0-5.769-2.588-5.769-5.769v-6.808c0-1.233-.692-2.189-1.288-2.189-2.683 0-4.866-2.587-4.866-5.768v-26.523c0-3.18 2.587-5.768 5.768-5.768h131.612c3.18 0 5.768 2.587 5.768 5.768v26.523c0 3.157-1.528 5.569-3.596 5.756-.194.257-.538 1.008-.538 2.201v6.808c-.001 3.181-2.589 5.769-5.769 5.769zm-108.749-18.344h96.175c3.072 0 5.9 2.369 6.439 5.392l1.233 6.932c.232 1.3 1.593 2.441 2.913 2.441h1.989c1.208 0 2.19-.982 2.19-2.19v-6.808c0-3.158 1.529-5.57 3.597-5.756.194-.256.537-1.007.537-2.202v-26.523c0-1.208-.982-2.189-2.189-2.189h-131.613c-1.208 0-2.189.982-2.189 2.189v26.523c0 1.233.692 2.19 1.288 2.19 2.683 0 4.866 2.587 4.866 5.768v6.808c0 1.208.982 2.19 2.19 2.19h1.989c1.321 0 2.684-1.142 2.917-2.443l1.232-6.93c.541-3.024 3.367-5.392 6.436-5.392z" fill="#24202b"/><path d="m194 170.292h-129.977c-.988 0-1.789-.801-1.789-1.789v-15.814c0-.988.801-1.789 1.789-1.789h129.977c.988 0 1.789.801 1.789 1.789v15.814c0 .988-.801 1.789-1.789 1.789zm-128.188-3.578h126.398v-12.236h-126.398z" fill="#24202b"/><path d="m123.698 152.689c-.035-9.83-8.008-17.796-17.847-17.796h-14.695c-9.837 0-17.811 7.966-17.842 17.796z" fill="#7fd57a"/><path d="m85.251 152.689c.03-9.83 8.004-17.796 17.843-17.796h-11.938c-9.837 0-17.811 7.966-17.842 17.796z" fill="#1d966a"/><path d="m123.698 154.478h-50.384c-.476 0-.931-.189-1.267-.526-.335-.337-.523-.793-.522-1.269.034-10.796 8.841-19.579 19.631-19.579h14.695c10.789 0 19.597 8.783 19.636 19.579.001.476-.186.932-.522 1.269-.335.336-.791.526-1.267.526zm-48.489-3.579h46.594c-.923-7.988-7.735-14.218-15.951-14.218h-14.696c-8.217.001-15.027 6.231-15.947 14.218z" fill="#24202b"/><path d="m185.37 152.689c-.035-9.83-8.009-17.796-17.846-17.796h-14.695c-9.839 0-17.812 7.966-17.843 17.796z" fill="#7fd57a"/><path d="m146.923 152.689c.03-9.83 8.004-17.796 17.842-17.796h-11.936c-9.839 0-17.812 7.966-17.843 17.796z" fill="#1d966a"/><path d="m185.37 154.478h-50.384c-.476 0-.931-.189-1.267-.526-.335-.337-.523-.793-.522-1.269.033-10.796 8.84-19.58 19.632-19.58h14.695c10.788 0 19.596 8.783 19.635 19.579.001.476-.186.932-.522 1.269-.335.337-.791.527-1.267.527zm-48.489-3.579h46.594c-.923-7.988-7.734-14.218-15.95-14.218h-14.695c-8.219.001-15.03 6.231-15.949 14.218z" fill="#24202b"/><path d="m45.727 203.403c0 2.188-1.79 3.979-3.979 3.979h-28.52c-2.188 0-3.979-1.791-3.979-3.979v-58.913c0-2.188 1.791-3.979 3.979-3.979h28.52c2.189 0 3.979 1.79 3.979 3.979z" fill="#7fd57a"/><path d="m17.876 203.403c0 2.188-1.791 3.979-3.979 3.979h-.669c-2.188 0-3.979-1.791-3.979-3.979v-58.913c0-2.188 1.791-3.979 3.979-3.979h.669c2.188 0 3.979 1.79 3.979 3.979z" fill="#1d966a"/><g fill="#24202b"><path d="m41.749 209.171h-28.521c-3.181 0-5.768-2.587-5.768-5.768v-58.913c0-3.18 2.587-5.768 5.768-5.768h28.521c3.181 0 5.768 2.587 5.768 5.768v58.913c0 3.18-2.588 5.768-5.768 5.768zm-28.521-66.87c-1.208 0-2.19.982-2.19 2.189v58.913c0 1.208.982 2.189 2.19 2.189h28.521c1.208 0 2.19-.982 2.19-2.189v-58.913c0-1.208-.982-2.189-2.19-2.189z"/><path d="m9.249 223.517c-.988 0-1.789-.801-1.789-1.789v-19.141c0-.988.801-1.789 1.789-1.789s1.789.801 1.789 1.789v19.141c0 .988-.801 1.789-1.789 1.789z"/><path d="m45.728 223.517c-.988 0-1.789-.801-1.789-1.789v-19.141c0-.988.801-1.789 1.789-1.789s1.789.801 1.789 1.789v19.141c0 .988-.801 1.789-1.789 1.789z"/><path d="m45.728 164.191h-36.479c-.988 0-1.789-.801-1.789-1.789s.801-1.789 1.789-1.789h36.479c.988 0 1.789.801 1.789 1.789s-.801 1.789-1.789 1.789z"/><path d="m45.728 188.943h-36.479c-.988 0-1.789-.801-1.789-1.789s.801-1.789 1.789-1.789h36.479c.988 0 1.789.801 1.789 1.789s-.801 1.789-1.789 1.789z"/><path d="m31.863 152.388h-8.75c-.988 0-1.789-.801-1.789-1.789s.801-1.789 1.789-1.789h8.75c.988 0 1.789.801 1.789 1.789s-.8 1.789-1.789 1.789z"/><path d="m31.863 174.271h-8.75c-.988 0-1.789-.801-1.789-1.789s.801-1.789 1.789-1.789h8.75c.988 0 1.789.801 1.789 1.789s-.8 1.789-1.789 1.789z"/><path d="m31.863 198.898h-8.75c-.988 0-1.789-.801-1.789-1.789s.801-1.789 1.789-1.789h8.75c.988 0 1.789.801 1.789 1.789s-.8 1.789-1.789 1.789z"/></g><path d="m246.751 203.403c0 2.188-1.791 3.979-3.979 3.979h-28.513c-2.189 0-3.979-1.791-3.979-3.979v-58.913c0-2.188 1.79-3.979 3.979-3.979h28.513c2.188 0 3.979 1.79 3.979 3.979z" fill="#7fd57a"/><path d="m218.898 203.403c0 2.188-1.79 3.979-3.979 3.979h-.66c-2.189 0-3.979-1.791-3.979-3.979v-58.913c0-2.188 1.79-3.979 3.979-3.979h.66c2.189 0 3.979 1.79 3.979 3.979z" fill="#1d966a"/><path d="m242.772 209.171h-28.513c-3.181 0-5.768-2.587-5.768-5.768v-58.913c0-3.18 2.587-5.768 5.768-5.768h28.513c3.181 0 5.768 2.587 5.768 5.768v58.913c0 3.18-2.587 5.768-5.768 5.768zm-28.513-66.87c-1.208 0-2.19.982-2.19 2.189v58.913c0 1.208.982 2.189 2.19 2.189h28.513c1.208 0 2.19-.982 2.19-2.189v-58.913c0-1.208-.982-2.189-2.19-2.189z" fill="#24202b"/><path d="m210.28 223.517c-.988 0-1.789-.801-1.789-1.789v-19.141c0-.988.801-1.789 1.789-1.789s1.789.801 1.789 1.789v19.141c0 .988-.8 1.789-1.789 1.789z" fill="#24202b"/><path d="m246.751 223.517c-.988 0-1.789-.801-1.789-1.789v-19.141c0-.988.801-1.789 1.789-1.789s1.789.801 1.789 1.789v19.141c0 .988-.801 1.789-1.789 1.789z" fill="#24202b"/><path d="m246.751 164.191h-36.471c-.988 0-1.789-.801-1.789-1.789s.801-1.789 1.789-1.789h36.471c.988 0 1.789.801 1.789 1.789s-.801 1.789-1.789 1.789z" fill="#24202b"/><path d="m246.751 188.943h-36.471c-.988 0-1.789-.801-1.789-1.789s.801-1.789 1.789-1.789h36.471c.988 0 1.789.801 1.789 1.789s-.801 1.789-1.789 1.789z" fill="#24202b"/><path d="m232.89 152.388h-8.749c-.988 0-1.789-.801-1.789-1.789s.801-1.789 1.789-1.789h8.749c.988 0 1.789.801 1.789 1.789s-.801 1.789-1.789 1.789z" fill="#24202b"/><path d="m232.89 174.271h-8.749c-.988 0-1.789-.801-1.789-1.789s.801-1.789 1.789-1.789h8.749c.988 0 1.789.801 1.789 1.789s-.801 1.789-1.789 1.789z" fill="#24202b"/><path d="m232.89 198.898h-8.749c-.988 0-1.789-.801-1.789-1.789s.801-1.789 1.789-1.789h8.749c.988 0 1.789.801 1.789 1.789s-.801 1.789-1.789 1.789z" fill="#24202b"/><path d="m29.396 68.762c-.654 0-1.256-.357-1.57-.931l-4.671-8.546-8.543-4.667c-.574-.313-.931-.915-.931-1.569s.356-1.256.93-1.57l8.545-4.675 4.672-8.54c.314-.574.916-.931 1.569-.931.654 0 1.256.357 1.57.931l4.67 8.54 8.545 4.675c.574.314.93.916.93 1.57s-.357 1.256-.931 1.569l-8.544 4.667-4.67 8.546c-.314.574-.916.931-1.571.931z" fill="#b8dff4"/><path d="m29.396 39.122 4.922 8.999 9.004 4.927-9.004 4.919-4.922 9.006-4.923-9.006-9.004-4.919 9.004-4.927zm0-3.578c-1.308 0-2.511.714-3.139 1.861l-4.42 8.081-8.085 4.424c-1.148.628-1.861 1.832-1.86 3.14.001 1.309.715 2.512 1.863 3.139l8.083 4.416 4.419 8.086c.628 1.147 1.832 1.862 3.14 1.862 1.309-.001 2.512-.714 3.14-1.862l4.418-8.086 8.083-4.416c1.148-.627 1.862-1.831 1.863-3.139 0-1.308-.713-2.512-1.86-3.14l-8.085-4.424-4.419-8.08c-.629-1.148-1.832-1.862-3.141-1.862z" fill="#24202b"/><path d="m170.788 57.564c-.654 0-1.256-.357-1.57-.931l-3.552-6.496-6.487-3.549c-.574-.313-.931-.916-.931-1.569s.357-1.256.931-1.569l6.488-3.549 3.552-6.488c.314-.573.915-.93 1.569-.93h.001c.653 0 1.255.357 1.569.931l3.549 6.487 6.492 3.549c.574.314.931.916.931 1.57s-.357 1.256-.931 1.57l-6.491 3.549-3.549 6.495c-.316.573-.918.93-1.571.93z" fill="#b8dff4"/><path d="m170.787 34.272 3.801 6.947 6.951 3.8-6.951 3.8-3.801 6.955-3.804-6.955-6.947-3.8 6.947-3.8zm0-3.578c-1.308 0-2.511.713-3.139 1.86l-3.301 6.029-6.029 3.298c-1.147.628-1.861 1.831-1.861 3.139s.713 2.511 1.861 3.139l6.028 3.297 3.301 6.036c.628 1.147 1.831 1.861 3.139 1.861h.001c1.308 0 2.512-.714 3.139-1.862l3.298-6.035 6.031-3.297c1.148-.627 1.862-1.831 1.862-3.139s-.714-2.512-1.862-3.139l-6.032-3.298-3.298-6.028c-.627-1.147-1.83-1.86-3.138-1.861z" fill="#24202b"/><path d="m32.392 109.124c0 2.705-2.195 4.896-4.903 4.896s-4.904-2.192-4.904-4.896c0-2.712 2.196-4.903 4.904-4.903s4.903 2.191 4.903 4.903z" fill="#ffdc00"/><path d="m27.488 115.81c-3.691 0-6.693-2.999-6.693-6.686 0-3.69 3.002-6.692 6.693-6.692 3.69 0 6.692 3.002 6.692 6.692.001 3.687-3.002 6.686-6.692 6.686zm0-9.8c-1.718 0-3.115 1.397-3.115 3.114 0 1.713 1.397 3.107 3.115 3.107 1.717 0 3.114-1.394 3.114-3.107.001-1.717-1.396-3.114-3.114-3.114z" fill="#24202b"/><path d="m42.881 98.158c.36 2.159-1.136 3.925-3.324 3.925h-24.138c-2.188 0-3.684-1.766-3.324-3.925l1.946-11.672c.36-2.158 2.445-3.924 4.634-3.924h17.625c2.188 0 4.273 1.766 4.634 3.924z" fill="#e0bb07"/><path d="m39.557 103.872h-24.138c-1.57 0-3.021-.651-3.983-1.786-.961-1.135-1.364-2.674-1.105-4.223l1.946-11.672c.507-3.039 3.318-5.419 6.398-5.419h17.625c3.081 0 5.891 2.38 6.398 5.419l1.947 11.672c.258 1.548-.145 3.087-1.105 4.222-.961 1.136-2.413 1.787-3.983 1.787zm-20.882-19.521c-1.312 0-2.653 1.135-2.869 2.43l-1.946 11.672c-.086.517.022.986.307 1.321s.729.52 1.252.52h24.138c.524 0 .969-.185 1.253-.52s.393-.805.307-1.321l-1.947-11.672c-.216-1.294-1.557-2.43-2.869-2.43z" fill="#24202b"/><path d="m33.15 117.136c-2.189 0-4.736 0-5.662 0-.925 0-3.473 0-5.662 0h-6.484c-2.188 0-3.341 1.673-2.562 3.718l6.073 15.939c.779 2.045 2.662 3.718 4.185 3.718h4.451 4.451c1.523 0 3.406-1.673 4.185-3.718l6.072-15.939c.779-2.045-.374-3.718-2.562-3.718z" fill="#e57225"/><path d="m31.939 142.301h-8.902c-2.281 0-4.799-2.094-5.856-4.871l-6.073-15.938c-.584-1.533-.45-3.093.368-4.279.817-1.186 2.227-1.866 3.867-1.866h24.292c1.641 0 3.05.68 3.867 1.866s.951 2.746.367 4.278l-6.072 15.938c-1.059 2.778-3.577 4.872-5.858 4.872zm-16.597-23.376c-.439 0-.784.119-.921.318s-.126.563.03.974l6.073 15.938c.606 1.592 1.971 2.566 2.513 2.566h8.902c.542 0 1.907-.974 2.513-2.566l6.072-15.938c.157-.411.168-.775.03-.974-.137-.199-.481-.318-.921-.318z" fill="#24202b"/><path d="m184.561 125.863s-.226-.094-.334-.155c-.113-.055-.322-.179-.322-.179-12.435-6.699-17.637-19.413-17.637-19.413l13.071-11.688 16.218 8.284.661.335 16.222 8.283-1.814 17.446c0 .001-13.347 3.234-26.065-2.913z" fill="#ffdc00"/><path d="m184.561 125.863s-.226-.094-.334-.155c-.113-.055-.322-.179-.322-.179-12.435-6.699-17.637-19.413-17.637-19.413l13.071-11.688 16.218 8.284.661.335 16.222 8.283-1.814 17.446c0 .001-13.347 3.234-26.065-2.913z" fill="#ffdc00"/><path d="m189.166 127.697c-1.527-.49-3.065-1.088-4.605-1.834 0 0-.226-.094-.334-.155-.113-.055-.322-.179-.322-.179-12.435-6.699-17.637-19.413-17.637-19.413l13.071-11.688 9.445 4.818-13.071 11.695c.001.001 4.03 9.824 13.453 16.756z" fill="#e0bb07"/><path d="m197.05 103.521-2.486-1.267-19.475-9.954 4.693-9.186s9.454-7.911 18.829-3.124l14.226-32.297s2.044-5.813 10.852-2.463c0 0 .898.311 1.294.543.416.188 1.193.732 1.193.732 7.876 5.168 4.367 10.234 4.367 10.234l-17.83 30.454c9.371 4.788 8.505 17.082 8.505 17.082l-4.693 9.193z" fill="#ff8b38"/><path d="m220.515 51.618-14.225 32.296c-9.376-4.786-18.829 3.124-18.829 3.124l-4.694 9.187-7.678-3.925 4.693-9.186s9.454-7.911 18.829-3.124l14.226-32.297s2.044-5.813 10.852-2.463c0 0 .898.311 1.294.543.416.188 1.193.732 1.193.732.937.613 1.698 1.227 2.34 1.826-6.409-1.221-8.001 3.287-8.001 3.287z" fill="#e57225"/><path d="m201.978 131.429c-5.075 0-11.67-.809-18.168-3.942-.092-.041-.263-.118-.391-.184-.166-.083-.428-.237-.428-.237-12.784-6.885-18.155-19.729-18.377-20.272-.287-.701-.101-1.506.463-2.011l13.071-11.688c.551-.492 1.347-.596 2.006-.26l33.1 16.902c.659.336 1.042 1.043.966 1.778l-1.814 17.446c-.078.753-.622 1.375-1.358 1.554-.289.071-3.887.914-9.07.914zm-33.527-24.864c1.57 3.163 6.717 12.225 16.303 17.389.074.042.185.109.258.146.025.013.075.038.099.052.039.019.13.056.138.06.03.012.062.026.091.041 9.837 4.755 20.167 3.608 23.644 3.022l1.551-14.908-30.917-15.787z" fill="#24202b"/><path d="m216.524 115.257c-.28 0-.56-.066-.814-.196l-41.436-21.168c-.879-.449-1.228-1.527-.779-2.407l4.693-9.186c.109-.214.261-.404.445-.558.399-.335 9.383-7.707 19.06-4.107l13.486-30.619c.195-.501 1.148-2.621 3.731-3.82 2.529-1.173 5.695-1.052 9.413.362.189.065.966.342 1.48.625.52.251 1.194.714 1.397.856 3.279 2.151 5.235 4.644 5.767 7.379.544 2.798-.615 4.815-.906 5.266l-16.904 28.872c8.588 5.728 7.88 17.325 7.843 17.845-.017.24-.082.474-.191.688l-4.693 9.193c-.216.423-.59.742-1.042.889-.178.057-.364.086-.55.086zm-39.028-23.736 20.367 10.406h.001l17.881 9.133 3.7-7.247c.036-1.893-.173-11.26-7.546-15.027-.438-.224-.765-.619-.903-1.091s-.075-.981.173-1.406l17.83-30.454c.023-.039.047-.078.073-.115.226-.352 2.168-3.753-3.878-7.72-.379-.264-.81-.534-.947-.596-.058-.026-.116-.056-.171-.088-.141-.082-.639-.28-.973-.396-2.793-1.062-5.087-1.222-6.685-.479-1.424.661-1.89 1.834-1.894 1.846-.015.043-.032.086-.05.128l-14.226 32.297c-.198.45-.574.799-1.038.964-.462.165-.974.132-1.413-.092-7.373-3.766-15.083 1.553-16.603 2.696z" fill="#24202b"/><path d="m174.783 118.467c-.481 0-.96-.193-1.313-.573-.671-.725-.628-1.856.097-2.528l15.542-14.4c.725-.671 1.857-.628 2.528.097s.628 1.856-.097 2.528l-15.542 14.4c-.344.318-.78.476-1.215.476z" fill="#24202b"/><path d="m197.079 129.487c-.11 0-.222-.01-.334-.032-.971-.184-1.609-1.12-1.425-2.09l3.726-19.692c.184-.971 1.12-1.614 2.09-1.425.971.184 1.609 1.12 1.425 2.09l-3.726 19.692c-.163.858-.913 1.457-1.756 1.457z" fill="#24202b"/></svg>