<svg id="Layer_1" enable-background="new 0 0 256 256" height="512" viewBox="0 0 256 256" width="512" xmlns="http://www.w3.org/2000/svg"><path d="m84.705 170.578c-1.748 0-3.427-.257-4.997-.766-6.108-1.989-9.605-7.207-12.415-11.399-1.406-2.102-2.863-4.274-4.075-5.16-.505-.37-1.259-.704-2.103-1.022l-19.828 80.52 24.215-12.532 15.628 22.342 18.697-75.908c-1.188.349-2.487.815-3.761 1.278-3.411 1.24-7.273 2.647-11.361 2.647z" fill="#e8c205"/><path d="m138.271 158.412c-2.813 4.192-6.31 9.415-12.419 11.399-1.569.509-3.247.766-4.992.766-4.091 0-7.954-1.406-11.361-2.646-1.278-.463-2.883-1.011-4.197-1.387l19.273 76.604 15.484-22.929 24.222 12.532-19.832-80.52c-.84.321-1.593.656-2.106 1.025-1.212.882-2.665 3.054-4.072 5.156z" fill="#e8c205"/><path d="m170.374 83.327c-1.539-1.946-3.124-3.967-3.567-5.327-.497-1.531-.405-4.205-.314-6.788.085-2.495.182-5.296-.207-8.11-.388-2.808-1.262-5.637-3.115-8.183-3.738-5.136-9.737-6.85-14.564-8.225-2.459-.704-5.005-1.427-6.26-2.343-1.216-.883-2.669-3.059-4.076-5.157-1.271-1.893-2.677-3.995-4.398-5.914-2.098-2.335-4.663-4.398-8.021-5.487-1.566-.509-3.244-.769-4.989-.769-4.091 0-7.953 1.407-11.361 2.646-2.478.902-5.035 1.831-6.721 1.831-1.679 0-4.24-.929-6.714-1.831-3.412-1.239-7.274-2.646-11.362-2.646-1.748 0-3.427.26-4.993.769-6.111 1.986-9.608 7.204-12.414 11.4-1.407 2.098-2.86 4.274-4.08 5.157-1.251.912-3.796 1.639-6.255 2.343-4.827 1.371-10.83 3.084-14.563 8.225-3.711 5.09-3.498 11.303-3.327 16.296.09 2.584.179 5.253-.31 6.785-.443 1.359-2.037 3.376-3.567 5.327-3.148 3.99-7.056 8.957-7.056 15.477 0 6.516 3.908 11.481 7.056 15.477 1.531 1.946 3.121 3.963 3.563 5.327.494 1.527.404 4.2.314 6.784-.171 4.993-.388 11.206 3.327 16.299 3.733 5.133 9.736 6.848 14.559 8.218 2.46.704 5.009 1.434 6.26 2.344 1.212.885 2.669 3.057 4.075 5.16 2.81 4.192 6.307 9.41 12.415 11.399 1.569.509 3.249.766 4.997.766 4.088 0 7.95-1.406 11.362-2.646 2.471-.897 5.035-1.826 6.714-1.826 1.686 0 4.243.929 6.718 1.826 3.407 1.24 7.27 2.646 11.361 2.646 1.745 0 3.423-.257 4.992-.766 6.109-1.985 9.606-7.207 12.419-11.399 1.407-2.102 2.859-4.274 4.072-5.157 1.259-.913 3.808-1.643 6.268-2.347 4.822-1.375 10.821-3.089 14.56-8.222 3.707-5.093 3.493-11.303 3.322-16.296-.09-2.584-.183-5.257.314-6.78.443-1.368 2.032-3.385 3.567-5.335 3.139-3.991 7.052-8.956 7.052-15.472-.001-6.519-3.914-11.486-7.053-15.476z" fill="#fa759e"/><path d="m67.293 158.412c-1.406-2.102-2.863-4.274-4.075-5.16-.505-.37-1.259-.704-2.103-1.022l-19.828 80.52 18.807-9.734 13.902-56.457c-2.84-2.401-4.915-5.478-6.703-8.147z" fill="#dbb705"/><path d="m109.499 167.932c-1.442-.521-2.887-1.034-4.197-1.387l19.129 76.017 12.138-17.353-13.49-54.798c-.73.097-1.465.167-2.218.167-4.092 0-7.955-1.407-11.362-2.646z" fill="#dbb705"/><path d="m81.13 244.35c-.577 0-1.127-.28-1.465-.764l-14.73-21.059-22.825 11.813c-.625.323-1.378.25-1.93-.184-.551-.435-.797-1.151-.63-1.833l19.828-80.521c.123-.497.452-.917.904-1.156.453-.237.986-.271 1.464-.09 1.166.439 1.945.826 2.527 1.252 1.477 1.078 3.017 3.382 4.506 5.609 2.656 3.962 5.962 8.895 11.482 10.692 1.386.45 2.881.678 4.442.678 3.765 0 7.465-1.344 10.729-2.531 1.363-.495 2.669-.963 3.889-1.321.616-.18 1.278-.019 1.741.424.462.442.653 1.099.5 1.72l-18.697 75.908c-.168.682-.719 1.202-1.409 1.331-.107.022-.217.032-.326.032zm-15.628-25.92c.568 0 1.122.271 1.467.764l13.368 19.111 16.977-68.921c-.21.076-.422.152-.635.23-3.563 1.294-7.578 2.753-11.973 2.753-1.937 0-3.804-.287-5.549-.854-6.697-2.181-10.385-7.683-13.348-12.104-1.132-1.692-2.523-3.773-3.488-4.587l-18.353 74.528 20.713-10.719c.261-.136.543-.201.821-.201z" fill="#24202b"/><path d="m133.71 162.2c-4.092 0-7.954-1.407-11.362-2.646-2.475-.901-5.036-1.83-6.714-1.83-1.687 0-4.244.928-6.722 1.83-3.404 1.239-7.274 2.646-11.361 2.646-1.745 0-3.423-.26-4.993-.77-6.112-1.984-9.605-7.203-12.414-11.399-1.407-2.099-2.863-4.271-4.072-5.157-1.259-.914-3.799-1.64-6.263-2.343-4.826-1.371-10.826-3.085-14.564-8.218-3.71-5.098-3.496-11.311-3.322-16.3.089-2.584.183-5.257-.314-6.784-.443-1.364-2.028-3.38-3.566-5.327-3.14-3.995-7.053-8.96-7.053-15.48 0-6.516 3.913-11.481 7.053-15.477 1.539-1.95 3.123-3.963 3.566-5.327.498-1.526.404-4.197.314-6.78-.159-4.741-.322-10.561 2.825-15.496-4.344 1.312-9.169 3.198-12.348 7.576-3.711 5.09-3.498 11.303-3.327 16.296.09 2.584.179 5.253-.31 6.785-.443 1.359-2.037 3.376-3.567 5.327-3.148 3.99-7.056 8.957-7.056 15.477 0 6.516 3.908 11.481 7.056 15.477 1.531 1.946 3.121 3.963 3.563 5.327.494 1.527.404 4.2.314 6.784-.171 4.993-.388 11.206 3.327 16.299 3.733 5.133 9.736 6.848 14.559 8.218 2.46.704 5.009 1.434 6.26 2.344 1.212.885 2.669 3.057 4.075 5.16 2.81 4.192 6.307 9.41 12.415 11.399 1.569.509 3.249.766 4.997.766 4.088 0 7.95-1.406 11.362-2.646 2.471-.897 5.035-1.826 6.714-1.826 1.686 0 4.243.929 6.718 1.826 3.407 1.24 7.27 2.646 11.361 2.646 1.745 0 3.423-.257 4.992-.766 4.415-1.433 7.453-4.558 9.866-7.763-.665.078-1.325.152-2.009.152z" fill="#dd5e8c"/><path d="m120.86 172.367c-4.405 0-8.423-1.462-11.968-2.752-2.236-.811-4.744-1.72-6.111-1.72-1.372 0-3.886.913-6.104 1.719-3.563 1.294-7.578 2.753-11.973 2.753-1.937 0-3.804-.287-5.549-.854-6.697-2.181-10.385-7.683-13.348-12.104-1.194-1.786-2.679-4.006-3.645-4.711-.994-.723-3.602-1.469-5.697-2.068-4.813-1.368-11.409-3.243-15.513-8.886-4.073-5.584-3.849-12.133-3.668-17.395.077-2.217.172-4.952-.228-6.19-.341-1.05-1.949-3.094-3.24-4.736-3.341-4.24-7.466-9.476-7.466-16.617 0-7.153 4.301-12.604 7.44-16.584l.072-.092c1.275-1.624 2.861-3.645 3.199-4.681.396-1.235.3-3.971.224-6.168-.18-5.271-.405-11.825 3.669-17.412 4.102-5.648 10.701-7.523 15.52-8.892 2.209-.632 4.699-1.345 5.69-2.067.956-.692 2.43-2.89 3.614-4.657 2.833-4.238 6.668-9.976 13.381-12.157 1.748-.568 3.614-.856 5.546-.856 4.39 0 8.401 1.457 11.94 2.741 2.25.82 4.761 1.735 6.136 1.735s3.89-.915 6.109-1.723c3.562-1.294 7.575-2.753 11.973-2.753 1.929 0 3.794.288 5.542.857 3.24 1.05 6.119 3.01 8.798 5.992.661.735.6 1.866-.135 2.526-.734.66-1.866.601-2.526-.135-2.247-2.5-4.616-4.13-7.242-4.981-1.392-.453-2.884-.682-4.437-.682-3.768 0-7.467 1.344-10.73 2.531-2.639.96-5.347 1.945-7.353 1.945-2.007 0-4.711-.986-7.327-1.939-3.292-1.195-6.989-2.537-10.749-2.537-1.556 0-3.05.229-4.44.681-5.533 1.798-8.83 6.73-11.479 10.693-1.585 2.365-3.05 4.549-4.519 5.612-1.5 1.093-4.072 1.83-6.795 2.608-4.577 1.3-10.248 2.911-13.625 7.562-3.349 4.592-3.148 10.462-2.987 15.179.095 2.734.193 5.559-.394 7.396-.537 1.648-2.117 3.661-3.79 5.792l-.075.095c-2.975 3.771-6.674 8.46-6.674 14.372 0 5.901 3.7 10.597 6.672 14.369 1.722 2.189 3.321 4.223 3.86 5.881.594 1.838.496 4.665.401 7.399-.162 4.729-.363 10.594 2.984 15.183 3.379 4.646 9.047 6.257 13.603 7.552 2.734.782 5.314 1.521 6.823 2.618 1.48 1.081 3.021 3.385 4.51 5.612 2.656 3.962 5.962 8.895 11.482 10.692 1.386.45 2.881.678 4.442.678 3.765 0 7.465-1.344 10.729-2.531 2.639-.958 5.345-1.941 7.347-1.941 1.996 0 4.696.979 7.307 1.926 3.295 1.199 6.998 2.546 10.772 2.546 1.558 0 3.052-.229 4.44-.679 5.511-1.791 8.817-6.718 11.474-10.676 1.574-2.353 3.048-4.556 4.517-5.625 1.518-1.101 4.097-1.839 6.828-2.621 4.558-1.299 10.227-2.916 13.605-7.555 3.343-4.594 3.142-10.462 2.981-15.178-.096-2.741-.195-5.573.401-7.399.539-1.664 2.146-3.707 3.849-5.87.61-.778 1.742-.919 2.519-.308.776.611.917 1.728.306 2.504-1.312 1.667-2.927 3.72-3.271 4.78-.401 1.229-.31 3.852-.229 6.167.18 5.269.404 11.821-3.664 17.411-4.104 5.636-10.432 7.44-15.515 8.889-2.204.63-4.703 1.346-5.708 2.075-.952.693-2.438 2.914-3.632 4.698-2.98 4.441-6.668 9.938-13.356 12.111-1.743.565-3.609.852-5.543.852z" fill="#24202b"/><path d="m145.001 98.804c0 23.317-18.903 42.217-42.22 42.217-23.313 0-42.213-18.9-42.213-42.217s18.899-42.216 42.213-42.216c13.319 0 25.201 6.166 32.941 15.802 5.805 7.235 9.279 16.416 9.279 26.414z" fill="#eee"/><path d="m103.309 74.149 7.196 14.583 16.094 2.335-11.649 11.354 2.752 16.028-14.393-7.569-14.392 7.569 2.744-16.028-11.642-11.354 16.094-2.335z" fill="#e8c205"/><path d="m97.248 113.911-8.3 4.367-.031.171 8.479-4.461z" fill="#dbb705"/><path d="m126.599 91.067-16.094-2.335-7.196-14.583-3.784 7.659 4.919 9.956 16.09 2.334-11.645 11.353 1.577 9.195 7.236 3.803-2.752-16.028z" fill="#dbb705"/><g fill="#24202b"><path d="m88.917 120.238c-.371 0-.74-.115-1.051-.341-.551-.4-.827-1.079-.712-1.75l2.584-15.101-10.968-10.698c-.488-.476-.663-1.187-.452-1.834.21-.647.771-1.12 1.444-1.217l15.163-2.2 6.779-13.739c.301-.611.923-.998 1.604-.998s1.303.387 1.604.998l6.78 13.739 15.163 2.2c.674.098 1.234.57 1.444 1.217.211.648.035 1.359-.453 1.834l-10.975 10.697 2.592 15.1c.115.671-.161 1.35-.711 1.75-.552.401-1.282.453-1.884.136l-13.561-7.131-13.559 7.131c-.26.139-.545.207-.831.207zm-5.054-27.921 9.047 8.823c.421.411.614 1.002.514 1.583l-2.132 12.455 11.184-5.882c.521-.273 1.144-.274 1.665 0l11.184 5.881-2.138-12.454c-.1-.581.093-1.173.515-1.584l9.052-8.823-12.505-1.814c-.583-.084-1.087-.451-1.348-.979l-5.592-11.332-5.591 11.332c-.261.528-.765.895-1.348.979z"/><path d="m102.781 142.81c-24.263 0-44.002-19.741-44.002-44.006s19.739-44.005 44.002-44.005c.988 0 1.789.801 1.789 1.789s-.801 1.789-1.789 1.789c-22.29 0-40.424 18.136-40.424 40.427 0 22.292 18.134 40.428 40.424 40.428 12.102 0 23.469-5.356 31.186-14.695.628-.762 1.757-.87 2.519-.239.762.629.869 1.757.239 2.519-8.399 10.163-20.77 15.993-33.944 15.993z"/><path d="m66.406 199.185c-.142 0-.286-.017-.429-.052-.959-.236-1.545-1.206-1.31-2.165l7.592-30.836c.237-.959 1.206-1.544 2.165-1.31.959.236 1.545 1.206 1.31 2.165l-7.592 30.836c-.202.816-.932 1.362-1.736 1.362z"/><path d="m130.592 203.203c-.807 0-1.539-.549-1.737-1.368l-7.515-31.003c-.232-.96.357-1.927 1.317-2.16.962-.23 1.927.357 2.16 1.317l7.515 31.003c.232.96-.357 1.927-1.317 2.16-.141.034-.283.051-.423.051z"/><path d="m124.575 244.937c-.103 0-.207-.009-.31-.027-.695-.122-1.254-.641-1.426-1.326l-19.273-76.604c-.156-.621.031-1.277.491-1.722s1.122-.612 1.737-.435c1.576.451 3.379 1.086 4.313 1.425 3.275 1.192 6.979 2.539 10.752 2.539 1.558 0 3.052-.229 4.44-.679 5.511-1.791 8.817-6.718 11.474-10.676l1.498.979-1.483-1c1.56-2.332 3.034-4.534 4.502-5.603.59-.424 1.365-.808 2.52-1.25.478-.184 1.014-.153 1.468.086.455.237.785.659.908 1.157l19.832 80.521c.167.682-.079 1.398-.63 1.833-.551.433-1.306.506-1.93.184l-22.808-11.8-14.594 21.61c-.335.498-.893.788-1.481.788zm-16.751-75.702 17.509 69.593 13.244-19.611c.508-.752 1.497-1.005 2.305-.587l20.72 10.72-18.356-74.53c-.948.792-2.348 2.885-3.483 4.582 0 .001-.004.006-.005.007l-1.485-.997 1.474 1.015c-2.963 4.417-6.651 9.913-13.34 12.086-1.746.566-3.611.854-5.545.854-4.405 0-8.423-1.462-11.968-2.752-.361-.131-.719-.258-1.07-.38z"/></g><path d="m204.127 51.688h-9.706c-3.124-3.665-7.414-6.303-12.306-7.316-10.141-4.138-15.981-11.471-18.39-15.115-.494-.804-.936-1.539-1.313-2.176l-.008-.015h-.004c-.665-1.124-1.126-1.943-1.282-2.308l-3.307-7.588c-1.581-3.637-5.812-5.3-9.445-3.718-2.787 1.213-4.399 3.982-4.294 6.846-.043.743-.023 1.601.074 2.6 0 0 .436 13.463 7.239 21.013h-15.725c-4.048 0-7.332 3.283-7.332 7.332 0 3.435 2.366 6.291 5.552 7.091-.07.182-.14.365-.203.548-3.077.871-5.35 3.672-5.35 7.033 0 2.903 1.706 5.394 4.157 6.579v1.503c-2.452 1.185-4.157 3.676-4.157 6.582 0 3.719 2.778 6.757 6.368 7.239.186.385.365.773.575 1.146-1.703 1.1-2.829 3.003-2.829 5.179 0 3.415 2.767 6.182 6.178 6.182h15.955 15.771 7.27c5.394 0 10.332-1.938 14.167-5.152h12.344v-43.485z" fill="#f9b28a"/><path d="m151.385 43.909h6.182c-6.8-7.55-7.239-21.013-7.239-21.013-.096-.999-.112-1.857-.073-2.6-.102-2.774 1.422-5.448 4.048-6.718-1.811-.859-3.955-.991-5.936-.128-2.787 1.213-4.399 3.982-4.294 6.846-.043.743-.023 1.601.074 2.6-.001 0 .435 13.463 7.238 21.013z" fill="#f19d69"/><path d="m138.621 94.141c0-2.176 1.13-4.08 2.829-5.179-.206-.373-.389-.761-.575-1.146-3.587-.481-6.365-3.52-6.365-7.239 0-2.906 1.703-5.397 4.159-6.582v-1.503c-2.456-1.186-4.159-3.676-4.159-6.579 0-3.361 2.27-6.162 5.347-7.033.066-.183.136-.366.202-.548-3.183-.8-5.549-3.656-5.549-7.091 0-4.049 3.28-7.332 7.332-7.332h-6.182c-4.048 0-7.332 3.283-7.332 7.332 0 3.435 2.366 6.291 5.552 7.091-.07.182-.14.365-.203.548-3.077.871-5.35 3.672-5.35 7.033 0 2.903 1.706 5.394 4.157 6.579v1.503c-2.452 1.185-4.157 3.676-4.157 6.582 0 3.719 2.778 6.757 6.368 7.239.186.385.365.773.575 1.146-1.703 1.1-2.829 3.003-2.829 5.179 0 3.415 2.767 6.182 6.178 6.182h6.178c-3.409 0-6.176-2.767-6.176-6.182z" fill="#f19d69"/><path d="m204.127 51.688h23.733v43.483h-23.733z" fill="#14a2ff"/><path d="m204.127 79.939h23.733v15.231h-23.733z" fill="#098dd6"/><path d="m177.616 102.112h-38.995c-4.393 0-7.967-3.576-7.967-7.971 0-1.875.653-3.649 1.813-5.053-3.487-1.31-5.927-4.675-5.927-8.512 0-2.95 1.396-5.636 3.731-7.333-2.335-1.698-3.731-4.383-3.731-7.331 0-2.94 1.444-5.644 3.736-7.328-2.296-1.675-3.736-4.371-3.736-7.343 0-5.029 4.091-9.121 9.121-9.121h12.149c-4.897-7.759-5.411-18.108-5.45-19.107-.094-.995-.12-1.915-.078-2.737-.101-3.683 2-7 5.371-8.466.564-.247 1.185-.438 1.843-.566.09-.02.217-.036.346-.046.564-.086 1.081-.123 1.558-.115.057.001.201.014.257.02.485.015 1.064.093 1.639.229.044.01.088.022.131.036.538.136 1.072.329 1.63.588 1.991.949 3.546 2.545 4.396 4.5l3.307 7.586c.055.13.262.555 1.125 2.016.041.06.078.122.111.187.331.555.768 1.281 1.256 2.076 2.414 3.651 7.922 10.423 17.394 14.334 4.805 1.032 9.237 3.588 12.583 7.244h8.899c.988 0 1.789.801 1.789 1.789v43.482c0 .988-.801 1.789-1.789 1.789h-11.708c-4.204 3.328-9.435 5.153-14.804 5.153zm-41.956-56.414c-3.056 0-5.542 2.486-5.542 5.543 0 2.532 1.727 4.735 4.199 5.356.497.125.917.457 1.152.912s.265.989.081 1.468c-.062.16-.124.32-.179.481-.189.556-.641.983-1.206 1.143-2.383.674-4.047 2.858-4.047 5.312 0 2.126 1.206 4.03 3.147 4.969.618.298 1.01.924 1.01 1.61v1.503c0 .686-.393 1.312-1.011 1.611-1.941.938-3.146 2.843-3.146 4.971 0 2.748 2.071 5.097 4.817 5.466.595.08 1.111.453 1.373.993l.113.235c.131.274.261.548.41.812.465.824.208 1.868-.587 2.382-1.259.813-2.011 2.188-2.011 3.676 0 2.422 1.969 4.393 4.389 4.393h38.995c4.751 0 9.375-1.681 13.018-4.734.322-.27.729-.418 1.149-.418h10.555v-39.905h-7.917c-.524 0-1.021-.229-1.361-.628-2.927-3.433-6.943-5.821-11.308-6.725-.107-.022-.212-.054-.313-.096-10.452-4.265-16.52-11.72-19.207-15.785-.513-.833-.947-1.554-1.32-2.183-.018-.027-.036-.056-.053-.084-.994-1.682-1.26-2.217-1.388-2.519l-3.301-7.573c-.649-1.493-1.793-2.287-2.639-2.69-.358-.166-.706-.291-1.044-.372-.034-.008-.067-.017-.1-.027-.316-.069-.63-.109-.935-.12-.049-.002-.162-.012-.21-.018-.191 0-.5.022-.867.079-.059.011-.146.02-.233.027-.408.084-.752.192-1.061.327-2.04.888-3.304 2.905-3.222 5.141.002.056.001.112-.001.167-.039.675-.016 1.458.068 2.325.003.037.006.076.007.113.004.128.505 12.911 6.78 19.875.473.525.593 1.279.305 1.925-.287.646-.928 1.062-1.634 1.062zm14.563-30.952c-.02.004-.039.008-.058.012.017-.003.037-.007.058-.012z" fill="#24202b"/><path d="m227.861 96.959h-23.733c-.988 0-1.789-.801-1.789-1.789v-43.482c0-.988.801-1.789 1.789-1.789h23.733c.988 0 1.789.801 1.789 1.789v43.482c0 .989-.801 1.789-1.789 1.789zm-21.944-3.578h20.155v-39.904h-20.155z" fill="#24202b"/><path d="m139.857 60.668h-6.179c-.988 0-1.789-.801-1.789-1.789s.801-1.789 1.789-1.789h6.179c.988 0 1.789.801 1.789 1.789s-.801 1.789-1.789 1.789z" fill="#24202b"/><path d="m138.664 75.216h-6.182c-.988 0-1.789-.801-1.789-1.789s.801-1.789 1.789-1.789h6.182c.988 0 1.789.801 1.789 1.789s-.801 1.789-1.789 1.789z" fill="#24202b"/><path d="m141.333 90.362h-6.178c-.988 0-1.789-.801-1.789-1.789s.801-1.789 1.789-1.789h6.178c.988 0 1.789.801 1.789 1.789s-.801 1.789-1.789 1.789z" fill="#24202b"/></svg>