<svg id="Layer_1" enable-background="new 0 0 256 256" height="512" viewBox="0 0 256 256" width="512" xmlns="http://www.w3.org/2000/svg"><path d="m222 201.227c0 10.988-8.906 19.894-19.895 19.894h-39.789c-10.988 0-19.893-8.906-19.893-19.894v-92.694c0-10.988 8.904-19.894 19.893-19.894h39.789c10.988 0 19.895 8.905 19.895 19.894z" fill="#c2cbe8"/><path d="m202.105 88.64h-18.977c10.988 0 19.893 8.905 19.893 19.894v92.694c0 10.988-8.904 19.894-19.893 19.894h18.977c10.988 0 19.895-8.906 19.895-19.894v-92.694c0-10.989-8.906-19.894-19.895-19.894z" fill="#eee"/><path d="m101.594 79.423c0 6.56-5.324 11.882-11.883 11.882-6.566 0-11.881-5.322-11.881-11.882 0-6.567 5.314-11.882 11.881-11.882 6.558 0 11.883 5.314 11.883 11.882z" fill="#b8dff4"/><path d="m89.711 93.094c-7.537 0-13.67-6.133-13.67-13.671s6.133-13.671 13.67-13.671c7.539 0 13.672 6.133 13.672 13.671s-6.133 13.671-13.672 13.671zm0-23.764c-5.564 0-10.092 4.527-10.092 10.093s4.527 10.093 10.092 10.093 10.094-4.527 10.094-10.093-4.529-10.093-10.094-10.093z" fill="#24202b"/><path d="m94.111 76.252c0 1.686-1.369 3.055-3.047 3.055-1.686 0-3.055-1.369-3.055-3.055 0-1.687 1.369-3.046 3.055-3.046 1.678 0 3.047 1.359 3.047 3.046z" fill="#eee"/><path d="m142.812 73.454c0 5.425-4.391 9.815-9.807 9.815-5.426 0-9.816-4.391-9.816-9.815 0-5.416 4.391-9.807 9.816-9.807 5.417 0 9.807 4.391 9.807 9.807z" fill="#b8dff4"/><path d="m133.006 85.059c-6.399 0-11.605-5.206-11.605-11.604 0-6.394 5.206-11.596 11.605-11.596 6.394 0 11.596 5.202 11.596 11.596 0 6.398-5.203 11.604-11.596 11.604zm0-19.622c-4.427 0-8.027 3.597-8.027 8.018 0 4.426 3.601 8.026 8.027 8.026 4.421 0 8.018-3.601 8.018-8.026-.001-4.422-3.597-8.018-8.018-8.018z" fill="#24202b"/><path d="m136.633 70.844c0 1.391-1.125 2.517-2.518 2.517-1.389 0-2.518-1.126-2.518-2.517s1.129-2.518 2.518-2.518c1.393 0 2.518 1.127 2.518 2.518z" fill="#eee"/><path d="m127.176 46.038c0 2.122 1.787 3.854 3.98 3.854h64.158c2.182 0 3.979-1.788 3.979-3.979v-7.461c0-2.184-1.779-3.784-3.955-3.551l-64.207 6.862c-2.176.234-3.955 2.154-3.955 4.275z" fill="#c2cbe8"/><path d="m131.131 41.764c-2.176.233-3.955 2.153-3.955 4.274 0 2.122 1.779 3.668 3.955 3.435l64.207-6.862c2.176-.233 3.955-2.16 3.955-4.282 0-2.121-1.779-3.66-3.955-3.427z" fill="#eee"/><path d="m204.693 88.64c-.227-10.297-8.611-18.588-18.961-18.588h-7.033c-10.352 0-18.736 8.291-18.971 18.588z" fill="#c2cbe8"/><path d="m185.732 70.051h-7.033c-.955 0-1.865.139-2.783.279 9.023 1.337 15.971 8.96 16.18 18.309h12.598c-.227-10.296-8.612-18.588-18.962-18.588z" fill="#eee"/><path d="m204.693 90.429h-44.965c-.481 0-.942-.194-1.279-.539s-.521-.81-.509-1.291c.255-11.214 9.567-20.337 20.759-20.337h7.033c11.194 0 20.503 9.124 20.749 20.338.011.481-.173.946-.509 1.291-.336.344-.797.538-1.279.538zm-43.036-3.578h41.109c-1.098-8.428-8.386-15.01-17.034-15.01h-7.033c-8.646-.001-15.937 6.582-17.042 15.01z" fill="#24202b"/><path d="m142.424 116.538v14.757 69.933c0 10.988 8.904 19.894 19.893 19.894h35.771 4.018c10.988 0 19.895-8.906 19.895-19.894v-84.689h-79.577z" fill="#1d966a"/><path d="m202.633 116.538v84.689c0 10.988-8.904 19.894-19.895 19.894h15.35 4.018c10.988 0 19.895-8.906 19.895-19.894v-84.689z" fill="#7fd57a"/><path d="m202.105 222.91h-39.789c-11.955 0-21.682-9.727-21.682-21.683v-92.694c0-11.956 9.727-21.683 21.682-21.683h39.789c11.956 0 21.684 9.727 21.684 21.683v92.694c0 11.956-9.727 21.683-21.684 21.683zm-39.789-132.481c-9.982 0-18.104 8.122-18.104 18.104v92.694c0 9.983 8.121 18.105 18.104 18.105h39.789c9.983 0 18.105-8.122 18.105-18.105v-92.694c0-9.983-8.122-18.104-18.105-18.104z" fill="#24202b"/><path d="m204.693 90.429h-44.965c-.481 0-.942-.194-1.279-.539s-.521-.81-.509-1.291c.255-11.214 9.567-20.337 20.759-20.337h7.033c11.194 0 20.503 9.124 20.749 20.338.011.481-.173.946-.509 1.291-.336.344-.797.538-1.279.538zm-43.036-3.578h41.109c-1.098-8.428-8.386-15.01-17.034-15.01h-7.033c-8.646-.001-15.937 6.582-17.042 15.01z" fill="#24202b"/><path d="m175.916 49.893h12.436v20.159h-12.436z" fill="#95a2c4"/><path d="m188.352 71.84h-12.436c-.988 0-1.789-.801-1.789-1.789v-20.158c0-.988.801-1.789 1.789-1.789h12.436c.988 0 1.789.801 1.789 1.789v20.159c0 .988-.801 1.788-1.789 1.788zm-10.647-3.578h8.857v-16.58h-8.857z" fill="#24202b"/><path d="m195.314 51.682h-64.158c-3.182 0-5.77-2.532-5.77-5.644 0-3.01 2.491-5.725 5.554-6.053l64.207-6.862c1.566-.172 3.048.3 4.18 1.317s1.755 2.441 1.755 4.012v7.461c0 3.181-2.587 5.769-5.768 5.769zm.441-15.013c-.074 0-.15.004-.227.012l-64.207 6.862c-1.277.137-2.356 1.279-2.356 2.495 0 1.139.983 2.065 2.191 2.065h64.158c1.207 0 2.189-.982 2.189-2.189v-7.461c0-.542-.202-1.021-.568-1.351-.314-.283-.727-.433-1.18-.433z" fill="#24202b"/><path d="m171.938 131.294h-29.506v62.503h29.506c2.184 0 3.979-1.795 3.979-3.979v-54.545c-.001-2.183-1.796-3.979-3.979-3.979z" fill="#14a2ff"/><path d="m171.938 195.587h-29.506c-.988 0-1.789-.801-1.789-1.789v-62.503c0-.988.801-1.789 1.789-1.789h29.506c3.181 0 5.768 2.588 5.768 5.769v54.545c-.001 3.18-2.588 5.767-5.768 5.767zm-27.717-3.578h27.717c1.187 0 2.189-1.002 2.189-2.189v-54.545c0-1.188-1.003-2.19-2.189-2.19h-27.717z" fill="#24202b"/><path d="m153.381 161.432c0 32.965-26.725 59.689-59.69 59.689-32.964 0-59.691-26.725-59.691-59.689 0-32.965 26.727-59.69 59.691-59.69 32.965-.001 59.69 26.724 59.69 59.69z" fill="#c2cbe8"/><path d="m93.691 132.585c-10.709 0-20.043 5.851-25.016 14.515 4.229-2.424 9.107-3.83 14.33-3.83 15.932 0 28.846 12.916 28.846 28.847 0 5.222-1.406 10.102-3.838 14.329 8.672-4.974 14.523-14.307 14.523-25.015.001-15.931-12.915-28.846-28.845-28.846z" fill="#eee"/><path d="m93.691 101.741c-20.455 0-38.484 10.297-49.238 25.972 9.598-6.583 21.199-10.452 33.719-10.452 32.965 0 59.689 26.725 59.689 59.689 0 12.519-3.871 24.121-10.451 33.718 15.674-10.754 25.971-28.783 25.971-49.237 0-32.965-26.725-59.69-59.69-59.69z" fill="#eee"/><path d="m93.691 222.91c-33.9 0-61.48-27.579-61.48-61.479s27.58-61.479 61.48-61.479c8.292 0 16.338 1.624 23.915 4.827.91.385 1.336 1.435.951 2.345s-1.433 1.335-2.344.951c-7.135-3.016-14.712-4.545-22.522-4.545-31.928 0-57.902 25.975-57.902 57.901s25.975 57.9 57.902 57.9 57.9-25.974 57.9-57.9c0-.988.801-1.789 1.789-1.789s1.789.801 1.789 1.789c.001 33.9-27.578 61.479-61.478 61.479z" fill="#24202b"/><path d="m93.691 192.066c-16.894 0-30.637-13.743-30.637-30.635s13.743-30.635 30.637-30.635c16.892 0 30.635 13.743 30.635 30.635s-13.743 30.635-30.635 30.635zm0-57.691c-14.92 0-27.059 12.138-27.059 27.057s12.139 27.057 27.059 27.057c14.919 0 27.057-12.138 27.057-27.057 0-14.92-12.138-27.057-27.057-27.057z" fill="#24202b"/><path d="m74.394 109.683c0 8.386-6.791 15.177-15.176 15.177-8.379 0-15.178-6.792-15.178-15.177 0-8.377 6.799-15.176 15.178-15.176 8.385 0 15.176 6.799 15.176 15.176z" fill="#b8dff4"/><path d="m59.219 126.649c-9.355 0-16.967-7.611-16.967-16.966 0-9.354 7.611-16.965 16.967-16.965 9.354 0 16.965 7.611 16.965 16.965 0 9.355-7.611 16.966-16.965 16.966zm0-30.353c-7.383 0-13.389 6.005-13.389 13.387s6.006 13.388 13.389 13.388c7.382 0 13.387-6.006 13.387-13.388-.001-7.382-6.005-13.387-13.387-13.387z" fill="#24202b"/><path d="m64.844 105.643c0 2.152-1.748 3.894-3.9 3.894s-3.895-1.741-3.895-3.894c0-2.152 1.742-3.901 3.895-3.901 2.152-.001 3.9 1.748 3.9 3.901z" fill="#eee"/><path d="m107.492 94.507c0 6.566-5.322 11.882-11.883 11.882-6.566 0-11.881-5.316-11.881-11.882 0-6.559 5.315-11.883 11.881-11.883 6.561 0 11.883 5.324 11.883 11.883z" fill="#b8dff4"/><path d="m95.609 108.178c-7.537 0-13.67-6.133-13.67-13.671 0-7.539 6.133-13.672 13.67-13.672 7.539 0 13.672 6.133 13.672 13.672 0 7.538-6.133 13.671-13.672 13.671zm0-23.765c-5.564 0-10.092 4.528-10.092 10.094 0 5.565 4.527 10.093 10.092 10.093s10.094-4.527 10.094-10.093-4.528-10.094-10.094-10.094z" fill="#24202b"/><path d="m100.01 91.344c0 1.685-1.369 3.046-3.049 3.046-1.686 0-3.053-1.36-3.053-3.046 0-1.687 1.367-3.054 3.053-3.054 1.68 0 3.049 1.367 3.049 3.054z" fill="#eee"/></svg>