<svg id="Layer_1" enable-background="new 0 0 256 256" height="512" viewBox="0 0 256 256" width="512" xmlns="http://www.w3.org/2000/svg"><path d="m170.203 145.504c0 29.22-23.686 52.902-52.895 52.902-29.221 0-52.907-23.683-52.907-52.902 0-29.215 23.687-52.901 52.907-52.901 29.21 0 52.895 23.686 52.895 52.901z" fill="#14a2ff"/><path d="m132.53 183.182c-29.22 0-52.905-23.682-52.905-52.898 0-10.716 3.202-20.666 8.68-28.998-14.385 9.454-23.905 25.711-23.905 44.218 0 29.22 23.687 52.902 52.907 52.902 18.501 0 34.767-9.52 44.217-23.904-8.332 5.475-18.287 8.68-28.994 8.68z" fill="#098dd6"/><path d="m117.308 200.195c-30.159 0-54.696-24.535-54.696-54.691s24.537-54.69 54.696-54.69c13.31 0 26.14 4.842 36.127 13.633.742.653.814 1.783.161 2.525s-1.783.813-2.524.161c-9.334-8.216-21.325-12.741-33.764-12.741-28.187 0-51.118 22.929-51.118 51.112 0 28.184 22.932 51.113 51.118 51.113 15.52 0 30.021-6.935 39.786-19.027.621-.768 1.747-.888 2.516-.268s.889 1.747.268 2.516c-10.448 12.937-25.964 20.357-42.57 20.357z" fill="#24202b"/><path d="m78.599 149.916h-14.199c-.988 0-1.789-.801-1.789-1.789s.801-1.789 1.789-1.789h14.198c.988 0 1.789.801 1.789 1.789s-.8 1.789-1.788 1.789z" fill="#24202b"/><path d="m157.181 146.934c0 21.701-17.586 39.295-39.292 39.295-21.696 0-39.29-17.594-39.29-39.295 0-21.7 17.594-39.294 39.29-39.294 21.706 0 39.292 17.594 39.292 39.294z" fill="#fa759e"/><path d="m117.889 188.018c-22.651 0-41.079-18.43-41.079-41.084 0-22.653 18.428-41.083 41.079-41.083 22.652 0 41.081 18.43 41.081 41.083 0 22.654-18.429 41.084-41.081 41.084zm0-78.589c-20.678 0-37.501 16.825-37.501 37.505s16.823 37.506 37.501 37.506c20.68 0 37.503-16.825 37.503-37.506s-16.824-37.505-37.503-37.505z" fill="#24202b"/><path d="m134.908 68.64c0 4.377-3.581 7.958-7.958 7.958h-17.678c-4.377 0-7.958-3.581-7.958-7.958v-3.088c0-4.377 3.581-7.958 7.958-7.958h17.678c4.377 0 7.958 3.581 7.958 7.958z" fill="#c2cbe8"/><path d="m126.95 78.387h-17.678c-5.375 0-9.747-4.373-9.747-9.747v-3.088c0-5.375 4.372-9.747 9.747-9.747h17.678c5.375 0 9.747 4.373 9.747 9.747v3.088c0 5.374-4.372 9.747-9.747 9.747zm-17.678-19.004c-3.401 0-6.169 2.768-6.169 6.169v3.088c0 3.401 2.768 6.168 6.169 6.168h17.678c3.401 0 6.169-2.767 6.169-6.168v-3.088c0-3.401-2.768-6.169-6.169-6.169z" fill="#24202b"/><path d="m117.308 92.603c2.704 0 5.345.268 7.941.66v-16.665h-14.268v16.416c2.076-.248 4.181-.411 6.327-.411z" fill="#c2cbe8"/><path d="m125.249 95.052c-.089 0-.179-.007-.268-.02-2.889-.437-5.326-.64-7.674-.64-1.872 0-3.872.13-6.113.399-.516.058-1.019-.099-1.4-.438-.383-.339-.602-.826-.602-1.338v-16.417c0-.988.801-1.789 1.789-1.789h14.268c.988 0 1.789.801 1.789 1.789v16.665c0 .521-.228 1.017-.622 1.356-.327.281-.742.433-1.167.433zm-7.941-4.239c1.946 0 3.939.128 6.152.398v-12.824h-10.689v12.641c1.603-.144 3.101-.215 4.537-.215z" fill="#24202b"/><path d="m118.604 139.219c-.988 0-1.789-.801-1.789-1.789v-25.322c0-.988.801-1.789 1.789-1.789s1.789.801 1.789 1.789v25.322c.001.988-.8 1.789-1.789 1.789z" fill="#24202b"/><path d="m110.125 144.341c-.351 0-.705-.103-1.016-.318l-16.312-11.288c-.812-.562-1.016-1.677-.453-2.489.562-.811 1.675-1.015 2.488-.453l16.312 11.288c.812.562 1.016 1.677.453 2.489-.346.502-.905.771-1.472.771z" fill="#24202b"/><path d="m169.241 149.916h-12.061c-.988 0-1.789-.801-1.789-1.789s.801-1.789 1.789-1.789h12.061c.988 0 1.789.801 1.789 1.789s-.801 1.789-1.789 1.789z" fill="#24202b"/><path d="m117.308 200.195c-.988 0-1.789-.801-1.789-1.789v-12.177c0-.988.801-1.789 1.789-1.789s1.789.801 1.789 1.789v12.177c0 .988-.801 1.789-1.789 1.789z" fill="#24202b"/><path d="m118.604 158.27c-6.248 0-11.332-5.085-11.332-11.336 0-6.249 5.084-11.333 11.332-11.333s11.332 5.084 11.332 11.333c0 6.251-5.083 11.336-11.332 11.336z" fill="#ffdc00"/><g fill="#24202b"><path d="m118.604 137.391c5.276 0 9.543 4.271 9.543 9.544 0 5.277-4.267 9.547-9.543 9.547-5.269 0-9.543-4.27-9.543-9.547 0-5.273 4.275-9.544 9.543-9.544m0-3.579c-7.235 0-13.121 5.887-13.121 13.122 0 7.237 5.886 13.126 13.121 13.126s13.121-5.888 13.121-13.126c.001-7.235-5.885-13.122-13.121-13.122z"/><path d="m117.308 59.383h-47.484c-.988 0-1.789-.801-1.789-1.789s.801-1.789 1.789-1.789h47.483c.988 0 1.789.801 1.789 1.789s-.8 1.789-1.788 1.789z"/><path d="m117.308 200.195h-59.87c-.988 0-1.789-.801-1.789-1.789s.801-1.789 1.789-1.789h59.87c.988 0 1.789.801 1.789 1.789s-.801 1.789-1.789 1.789z"/><path d="m117.308 94.392h-54.245c-.988 0-1.789-.801-1.789-1.789s.801-1.789 1.789-1.789h54.244c.988 0 1.789.801 1.789 1.789s-.8 1.789-1.788 1.789z"/><path d="m45.952 94.753h-23.873c-.988 0-1.789-.801-1.789-1.789s.801-1.789 1.789-1.789h23.873c.988 0 1.789.801 1.789 1.789s-.801 1.789-1.789 1.789z"/><path d="m53.46 59.383h-19.157c-.988 0-1.789-.801-1.789-1.789s.801-1.789 1.789-1.789h19.157c.988 0 1.789.801 1.789 1.789s-.801 1.789-1.789 1.789z"/></g><path d="m211.15 149.134h-5.059l-1.073-6.273c-.442-6.057-4.771-10.673-10.67-10.673h-13.071v46.72c0 5.891 4.78 10.669 10.678 10.669h19.195c5.891 0 10.669-4.779 10.669-10.669v-19.105c0-5.894-4.778-10.669-10.669-10.669z" fill="#1d966a"/><path d="m211.15 149.134h-5.059l-1.073-6.273c-.442-6.057-4.771-10.673-10.67-10.673h-8.976c5.9 0 10.228 4.616 10.67 10.673l1.073 6.273h5.059c5.891 0 10.669 4.775 10.669 10.669v19.105c0 5.891-4.778 10.669-10.669 10.669h8.976c5.891 0 10.669-4.779 10.669-10.669v-19.105c0-5.894-4.778-10.669-10.669-10.669z" fill="#7fd57a"/><path d="m212.666 110.118h-13.404-8.153-9.831v13.203h9.831 8.153 13.404c3.645 0 6.597-2.953 6.597-6.602 0-3.648-2.952-6.601-6.597-6.601z" fill="#eee"/><path d="m181.277 110.118h5.371v13.203h-5.371z" fill="#c2cbe8"/><path d="m230.368 113.165h-8.36v7.107h8.36c1.966 0 3.553-1.59 3.553-3.553 0-1.961-1.587-3.554-3.553-3.554z" fill="#fa759e"/><path d="m219.496 135.188-4.345-12.293c-.698.252-1.453.411-2.237.411h-4.011l4.905 13.896c.56 1.569 2.283 2.393 3.854 1.841 1.569-.556 2.394-2.277 1.834-3.855z" fill="#fa759e"/><path d="m199.431 123.321h-18.153v8.867h18.153c2.448 0 4.438-1.982 4.438-4.434-.001-2.447-1.99-4.433-4.438-4.433z" fill="#eee"/><path d="m181.277 123.321h5.371v8.867h-5.371z" fill="#c2cbe8"/><path d="m211.15 191.367h-19.195c-6.874 0-12.467-5.589-12.467-12.458v-68.79c0-.988.801-1.789 1.789-1.789h31.389c4.624 0 8.386 3.764 8.386 8.391 0 2.873-1.485 5.436-3.729 6.948l3.86 10.923c.43 1.211.362 2.518-.19 3.677-.552 1.158-1.522 2.032-2.733 2.461-2.495.876-5.247-.436-6.136-2.927l-4.485-12.692h-2.571c.379.803.591 1.699.591 2.645 0 2.416-1.385 4.514-3.402 5.545 2.55 2.191 4.237 5.477 4.541 9.342l.805 4.703h3.55c6.869 0 12.458 5.589 12.458 12.458v19.105c-.003 6.869-5.591 12.458-12.461 12.458zm-28.084-79.46v67.001c0 4.896 3.987 8.88 8.889 8.88h19.195c4.896 0 8.88-3.984 8.88-8.88v-19.105c0-4.896-3.983-8.88-8.88-8.88h-5.059c-.872 0-1.616-.628-1.764-1.487l-1.073-6.272c-.01-.057-.017-.114-.021-.171-.388-5.308-4.042-9.014-8.886-9.014-.988 0-1.789-.801-1.789-1.789s.801-1.789 1.789-1.789h5.082c1.46 0 2.648-1.187 2.648-2.645s-1.188-2.645-2.648-2.645c-.988 0-1.789-.801-1.789-1.789s.801-1.789 1.789-1.789h9.473c.758 0 1.435.478 1.687 1.193l4.905 13.88c.228.638.938.972 1.573.75.306-.108.554-.331.694-.626.141-.296.158-.631.047-.943l-3.806-10.768c-.365.051-.729.077-1.09.077h-.116c-.98 0-1.779-.79-1.789-1.771-.01-.98.771-1.787 1.753-1.807 2.642-.054 4.712-2.161 4.712-4.797 0-2.654-2.156-4.812-4.808-4.812h-29.598z" fill="#24202b"/><path d="m230.368 122.062h-8.36c-.988 0-1.789-.801-1.789-1.789v-7.107c0-.988.801-1.789 1.789-1.789h8.36c2.945 0 5.342 2.397 5.342 5.344 0 2.944-2.397 5.341-5.342 5.341zm-6.571-3.579h6.571c.973 0 1.764-.791 1.764-1.764 0-.974-.791-1.766-1.764-1.766h-6.571z" fill="#24202b"/><path d="m212.666 125.11h-31.389c-.988 0-1.789-.801-1.789-1.789s.801-1.789 1.789-1.789h31.389c.988 0 1.789.801 1.789 1.789s-.801 1.789-1.789 1.789z" fill="#24202b"/><path d="m195.593 133.978h-14.315c-.988 0-1.789-.801-1.789-1.789s.801-1.789 1.789-1.789h14.315c.988 0 1.789.801 1.789 1.789s-.801 1.789-1.789 1.789z" fill="#24202b"/></svg>