<svg id="Layer_1" enable-background="new 0 0 256 256" height="512" viewBox="0 0 256 256" width="512" xmlns="http://www.w3.org/2000/svg"><path d="m197.527 109.552c0 29.367-20.314 53.178-45.384 53.178-25.067 0-45.381-23.811-45.381-53.178 0-29.363 20.313-53.169 45.381-53.169 25.07 0 45.384 23.805 45.384 53.169z" fill="#e0bb07"/><path d="m152.144 56.383c-14.913 0-28.106 8.47-36.375 21.487 6.256-3.824 13.357-6.015 20.91-6.015 25.062 0 45.383 23.807 45.383 53.17 0 11.894-3.38 22.839-9.006 31.694 14.531-8.866 24.472-26.639 24.472-47.167-.001-29.364-20.315-53.169-45.384-53.169z" fill="#ffdc00"/><path d="m152.144 164.519c-26.01 0-47.17-24.658-47.17-54.967 0-30.304 21.16-54.958 47.17-54.958 17.359 0 33.271 11.06 41.527 28.865.416.896.026 1.96-.87 2.375-.898.415-1.96.026-2.376-.871-7.663-16.525-22.332-26.792-38.281-26.792-24.037 0-43.592 23.049-43.592 51.38 0 28.336 19.555 51.389 43.592 51.389 10.619 0 20.853-4.56 28.816-12.841.684-.711 1.816-.734 2.529-.049.712.685.734 1.817.049 2.53-8.643 8.988-19.793 13.939-31.394 13.939z" fill="#24202b"/><path d="m141.839 97.133c0 6.862-4.671 12.423-10.437 12.423-5.764 0-10.442-5.561-10.442-12.423 0-6.857 4.679-12.418 10.442-12.418 5.766.001 10.437 5.561 10.437 12.418z" fill="#ffdc00"/><path d="m152.144 162.73s-20.298 11.078-.592 15.442h.592c19.714-4.364 3.395-13.663 0-15.442z" fill="#e0bb07"/><path d="m152.144 179.961h-.592c-.13 0-.26-.014-.387-.042-6.246-1.383-9.503-3.619-9.959-6.833-.142-.996-.318-6.25 10.08-11.926.527-.286 1.16-.291 1.688-.014 4.198 2.2 11.141 6.629 10.482 11.573-.442 3.315-4.016 5.67-10.926 7.2-.127.028-.257.042-.386.042zm-.394-3.578h.196c7.087-1.6 7.887-3.568 7.963-4.137.233-1.752-2.979-4.825-7.74-7.47-3.438 2.051-7.733 5.605-7.42 7.808.098.69.98 2.434 7.001 3.799z" fill="#24202b"/><path d="m130.796 68.362c-2.569-8.39-24.119-9.21-48.124-1.839-24.009 7.372-41.382 20.155-38.805 28.537.493 1.62.493 1.62.493 1.62 1.655 1.31 5.369 5.071 8.257 8.362l59.234 67.57c2.885 3.292 5.682 2.429 6.225-1.912l11.088-89.17c.535-4.34 1.499-9.543 2.129-11.555.001-.001.001-.001-.497-1.613z" fill="#dd5e8c"/><path d="m73.137 98.738c-2.883-3.291-6.598-7.056-8.253-8.365 0 0 0 0-.498-1.612-2.199-7.153 21.783-20.97 21.783-20.97 3.792-2.188 3.812-3.249.042-2.359 0 0 0 0-3.539 1.092-24.009 7.371-41.382 20.154-38.805 28.536.493 1.62.493 1.62.493 1.62 1.655 1.31 5.369 5.071 8.257 8.362l59.234 67.57c2.885 3.292 5.682 2.429 6.225-1.912l1.267-10.23c.544-4.34-1.376-10.589-4.259-13.879z" fill="#c14d7c"/><path d="m129.011 82.784c-13.017 23.131-41.283 36.124-58.866 42.252l9.36 10.677c13.992-5.273 32.099-14.073 46.374-27.75z" fill="#14a2ff"/><path d="m93.832 152.052 9.1 10.386c5.703-2.712 11.602-5.938 17.383-9.749l2.262-18.164c-8.984 7.545-19.32 13.296-28.745 17.527z" fill="#14a2ff"/><path d="m130.796 68.362c2.581 8.384-14.793 21.164-38.799 28.535-24.005 7.378-45.554 6.554-48.13-1.838-2.577-8.381 14.796-21.165 38.805-28.536 24.005-7.371 45.555-6.551 48.124 1.839z" fill="#c14d7c"/><g fill="#24202b"><path d="m62.181 103.724c-.8 0-1.584-.015-2.353-.044-9.909-.379-16.185-3.254-17.671-8.096-1.487-4.836 2.093-10.736 10.083-16.612 7.489-5.508 18.11-10.536 29.907-14.158 11.798-3.623 23.408-5.422 32.693-5.069 9.908.378 16.181 3.251 17.666 8.091 1.489 4.838-2.09 10.739-10.079 16.615-7.487 5.507-18.108 10.535-29.905 14.157-10.819 3.325-21.484 5.116-30.341 5.116zm50.292-40.446c-8.498 0-18.788 1.735-29.276 4.955-11.422 3.507-21.664 8.345-28.837 13.621-6.476 4.763-9.759 9.503-8.783 12.68.977 3.182 6.355 5.264 14.388 5.571 8.894.338 20.084-1.406 31.507-4.917 11.423-3.507 21.663-8.344 28.835-13.619 6.476-4.763 9.758-9.503 8.779-12.68 0-.001 0-.001-.001-.002-.973-3.179-6.349-5.26-14.381-5.566-.728-.029-1.473-.043-2.231-.043z"/><path d="m115.201 176.4c-1.197 0-2.861-.518-4.695-2.61l-59.234-67.57c-2.787-3.176-6.46-6.903-8.021-8.138-.286-.226-.496-.533-.602-.882l-.493-1.62c-1.486-4.832 2.094-10.732 10.084-16.608 7.489-5.508 18.11-10.536 29.907-14.158 11.798-3.623 23.408-5.422 32.693-5.069 9.91.378 16.184 3.252 17.667 8.094l.496 1.607c.107.346.106.717-.002 1.063-.604 1.927-1.547 7.075-2.061 11.239l-11.088 89.172c-.48 3.836-2.392 4.972-3.487 5.308-.306.094-.7.172-1.164.172zm-69.286-80.757c1.889 1.608 5.277 5.062 8.047 8.218l59.235 67.571c1.026 1.17 1.823 1.464 2.12 1.375.29-.089.792-.783.986-2.331l11.087-89.168c.502-4.071 1.38-8.919 2.037-11.319l-.34-1.099c-.001-.001-.001-.003-.002-.004-.973-3.179-6.349-5.26-14.381-5.566-8.897-.341-20.083 1.406-31.507 4.913-11.422 3.507-21.664 8.345-28.837 13.621-6.476 4.763-9.759 9.503-8.783 12.68z"/><path d="m71.188 88.463c-.601 0-1.187-.302-1.525-.851-.053-.086-5.42-8.578-16.083-10.655-9.085-1.769-19.349 1.475-30.509 9.641-.798.583-1.917.409-2.5-.387-.583-.798-.41-1.917.387-2.5 12.025-8.798 23.254-12.247 33.37-10.252 12.209 2.407 18.137 11.879 18.384 12.281.516.842.252 1.944-.591 2.46-.291.178-.614.263-.933.263z"/><path d="m83.666 84.629c-.766 0-1.474-.495-1.71-1.265-7.454-24.287-33.324-24.884-34.421-24.897-.987-.012-1.779-.822-1.768-1.809s.811-1.78 1.806-1.769c.295.003 29.573.607 37.804 27.426.29.945-.241 1.945-1.186 2.235-.175.054-.352.079-.525.079z"/><path d="m104.912 78.104c-.95 0-1.741-.748-1.786-1.706-.022-.471-.435-11.639 8.318-20.486 7.254-7.331 18.479-10.768 33.372-10.248.987.036 1.76.865 1.725 1.852-.036.987-.88 1.729-1.852 1.724-13.854-.493-24.18 2.597-30.702 9.188-7.662 7.744-7.292 17.704-7.288 17.803.046.987-.717 1.824-1.704 1.87-.027.003-.056.003-.083.003z"/><path d="m92.431 81.932c-.765 0-1.473-.495-1.709-1.264-8.238-26.813 15.65-43.746 15.892-43.913.812-.562 1.927-.361 2.489.451s.361 1.925-.45 2.488c-.9.627-21.972 15.641-14.512 39.923.291.944-.24 1.945-1.185 2.235-.174.054-.351.08-.525.08z"/></g><path d="m39.616 51.091c1.247 4.056-1.03 8.346-5.079 9.585-4.048 1.243-8.342-1.03-9.581-5.076-1.247-4.056 1.025-8.346 5.074-9.589 4.049-1.242 8.346 1.03 9.586 5.08z" fill="#e0bb07"/><path d="m32.274 62.808c-1.523 0-3.033-.372-4.418-1.105-2.233-1.183-3.871-3.164-4.61-5.578-.743-2.416-.501-4.977.681-7.21s3.163-3.871 5.579-4.613c2.415-.741 4.975-.5 7.208.684 2.235 1.184 3.873 3.166 4.613 5.582.743 2.418.5 4.979-.684 7.212-1.184 2.232-3.166 3.869-5.582 4.608-.916.28-1.854.42-2.787.42zm.017-15.348c-.581 0-1.165.087-1.735.262-1.501.461-2.732 1.479-3.467 2.867-.735 1.389-.885 2.982-.422 4.486.459 1.501 1.477 2.731 2.865 3.466 1.389.736 2.981.887 4.481.425 1.502-.46 2.734-1.477 3.469-2.863.736-1.389.887-2.981.425-4.486 0 0 0-.001 0-.002-.459-1.5-1.478-2.732-2.867-3.467-.862-.457-1.802-.688-2.749-.688z" fill="#24202b"/><path d="m116.959 36.794c-4.175 0-7.805-2.687-9.032-6.687-1.53-4.982 1.278-10.285 6.259-11.82.907-.278 1.841-.418 2.779-.418 4.182 0 7.817 2.687 9.046 6.685 1.531 4.985-1.281 10.287-6.267 11.818-.904.28-1.843.422-2.785.422z" fill="#e0bb07"/><path d="m116.965 19.658c3.285 0 6.323 2.125 7.336 5.421 1.243 4.05-1.033 8.339-5.082 9.583-.752.232-1.513.343-2.261.343-3.277 0-6.309-2.123-7.321-5.423-1.243-4.049 1.025-8.338 5.075-9.586.75-.228 1.509-.338 2.253-.338m.001-3.578c-1.117 0-2.227.167-3.301.496-5.929 1.827-9.267 8.132-7.448 14.057 1.458 4.755 5.775 7.95 10.742 7.95 1.122 0 2.237-.169 3.316-.502 5.923-1.819 9.267-8.124 7.447-14.052-1.461-4.755-5.784-7.949-10.756-7.949z" fill="#24202b"/><path d="m73.147 46.909c-4.177 0-7.81-2.685-9.041-6.681-1.528-4.995 1.285-10.297 6.268-11.823.904-.277 1.839-.419 2.778-.419 4.176 0 7.81 2.685 9.042 6.681 1.527 4.992-1.286 10.294-6.268 11.823-.905.279-1.84.419-2.779.419z" fill="#e0bb07"/><path d="m73.152 29.776c3.28 0 6.315 2.12 7.332 5.418 1.239 4.053-1.029 8.342-5.083 9.586-.75.23-1.508.34-2.254.34-3.28 0-6.315-2.12-7.331-5.418-1.239-4.053 1.033-8.346 5.082-9.586.75-.23 1.509-.34 2.254-.34m0-3.578c-1.117 0-2.229.167-3.304.497-5.924 1.814-9.269 8.118-7.454 14.053 1.466 4.758 5.786 7.95 10.753 7.95 1.117 0 2.229-.167 3.304-.498 5.923-1.818 9.268-8.122 7.455-14.052-1.467-4.758-5.787-7.95-10.754-7.95z" fill="#24202b"/><path d="m34.817 100.713c1.243 4.045-1.033 8.335-5.082 9.581-4.049 1.244-8.339-1.033-9.586-5.082-1.239-4.052 1.029-8.338 5.082-9.581 4.048-1.248 8.339 1.025 9.586 5.082z" fill="#e0bb07"/><path d="m27.491 112.421c-4.045 0-7.8-2.619-9.052-6.683-1.526-4.99 1.286-10.29 6.268-11.818 2.413-.745 4.973-.502 7.206.682 2.232 1.183 3.872 3.167 4.615 5.585 1.531 4.98-1.28 10.281-6.266 11.816-.921.284-1.853.418-2.771.418zm.005-15.344c-.582 0-1.166.087-1.737.263-3.1.951-4.847 4.247-3.898 7.348.954 3.098 4.252 4.848 7.35 3.896 3.1-.955 4.849-4.25 3.897-7.346-.463-1.505-1.482-2.739-2.871-3.475-.859-.455-1.796-.686-2.741-.686z" fill="#24202b"/><path d="m163.971 35.976c1.252 4.049-1.025 8.339-5.074 9.582-4.048 1.242-8.339-1.026-9.582-5.079-1.251-4.049 1.019-8.338 5.075-9.586 4.047-1.243 8.337 1.029 9.581 5.083z" fill="#e0bb07"/><path d="m156.632 47.689c-1.522 0-3.032-.372-4.415-1.104-2.233-1.183-3.871-3.165-4.612-5.582-.745-2.41-.506-4.969.674-7.2 1.182-2.235 3.165-3.875 5.585-4.62 2.418-.743 4.976-.498 7.207.685 2.23 1.183 3.868 3.165 4.609 5.58.746 2.412.507 4.97-.674 7.202-1.183 2.236-3.166 3.876-5.584 4.618-.918.281-1.857.421-2.79.421zm.015-15.348c-.58 0-1.163.086-1.733.262-1.505.463-2.738 1.483-3.473 2.872-.732 1.386-.881 2.975-.418 4.475.462 1.506 1.48 2.738 2.867 3.473 1.387.734 2.977.885 4.481.424 1.503-.461 2.736-1.481 3.471-2.871.733-1.386.882-2.975.419-4.473-.001-.001-.001-.002-.001-.004-.461-1.503-1.479-2.736-2.867-3.471-.86-.455-1.798-.687-2.746-.687z" fill="#24202b"/><path d="m213.41 141.472h-5.06l-1.064-6.272c-.442-6.057-4.779-10.673-10.669-10.673h-13.071v46.719c0 5.891 4.778 10.67 10.67 10.67h19.193c5.891 0 10.671-4.779 10.671-10.67v-19.105c.001-5.894-4.779-10.669-10.67-10.669z" fill="#1d966a"/><path d="m213.41 141.472h-5.06l-1.064-6.272c-.442-6.057-4.779-10.673-10.669-10.673h-8.977c5.891 0 10.219 4.616 10.67 10.673l1.065 6.272h5.059c5.891 0 10.67 4.775 10.67 10.669v19.105c0 5.891-4.779 10.67-10.67 10.67h8.975c5.891 0 10.671-4.779 10.671-10.67v-19.105c.001-5.894-4.779-10.669-10.67-10.669z" fill="#7fd57a"/><path d="m214.925 102.457h-13.405-8.15-9.823v13.204h9.823 8.15 13.404c3.646 0 6.599-2.954 6.599-6.602s-2.953-6.602-6.598-6.602z" fill="#eee"/><path d="m183.547 102.457h5.361v13.204h-5.361z" fill="#c2cbe8"/><path d="m232.636 105.503h-8.369v7.106h8.369c1.959 0 3.553-1.588 3.553-3.551-.001-1.961-1.594-3.555-3.553-3.555z" fill="#fa759e"/><path d="m221.765 127.527-4.352-12.294c-.7.252-1.446.412-2.239.412h-4.009l4.912 13.895c.551 1.57 2.275 2.394 3.846 1.842 1.57-.556 2.393-2.277 1.842-3.855z" fill="#fa759e"/><path d="m201.699 115.661h-18.152v8.867h18.152c2.44 0 4.429-1.981 4.429-4.433 0-2.449-1.988-4.434-4.429-4.434z" fill="#eee"/><path d="m183.547 115.661h5.361v8.867h-5.361z" fill="#c2cbe8"/><path d="m213.41 183.706h-19.193c-6.87 0-12.459-5.589-12.459-12.459v-68.79c0-.988.801-1.789 1.789-1.789h31.378c4.625 0 8.388 3.764 8.388 8.391 0 2.931-1.464 5.488-3.716 6.982l3.854 10.889c.877 2.506-.439 5.257-2.932 6.138-1.214.426-2.52.355-3.674-.198-1.159-.555-2.032-1.527-2.457-2.738l-4.488-12.682h-2.573c.378.803.59 1.699.59 2.644 0 2.415-1.382 4.512-3.395 5.543 2.551 2.191 4.238 5.478 4.542 9.345l.797 4.701h3.549c6.87 0 12.46 5.589 12.46 12.458v19.105c0 6.87-5.59 12.46-12.46 12.46zm-28.074-79.46v67c0 4.897 3.984 8.881 8.881 8.881h19.193c4.897 0 8.882-3.984 8.882-8.881v-19.105c0-4.896-3.984-8.88-8.882-8.88h-5.06c-.873 0-1.618-.629-1.764-1.49l-1.063-6.272c-.01-.056-.017-.112-.021-.168-.388-5.308-4.041-9.014-8.885-9.014-.988 0-1.789-.801-1.789-1.789s.801-1.789 1.789-1.789h5.081c1.455 0 2.64-1.187 2.64-2.645s-1.185-2.644-2.64-2.644c-.988 0-1.789-.801-1.789-1.789s.801-1.789 1.789-1.789h9.466c.758 0 1.434.478 1.687 1.192l4.912 13.879c.109.312.331.558.626.699.297.143.63.159.94.051.635-.225.971-.932.746-1.576l-3.81-10.762c-.366.052-.731.078-1.093.078h-.108c-.98 0-1.779-.79-1.789-1.771-.01-.98.771-1.787 1.753-1.807 2.639-.054 4.705-2.161 4.705-4.797 0-2.654-2.157-4.812-4.81-4.812z" fill="#24202b"/><path d="m232.636 114.399h-8.369c-.988 0-1.789-.801-1.789-1.789v-7.106c0-.988.801-1.789 1.789-1.789h8.369c2.945 0 5.342 2.397 5.342 5.344 0 2.944-2.397 5.34-5.342 5.34zm-6.58-3.578h6.58c.973 0 1.764-.791 1.764-1.762 0-.974-.791-1.766-1.764-1.766h-6.58z" fill="#24202b"/><path d="m214.925 117.45h-31.378c-.988 0-1.789-.801-1.789-1.789s.801-1.789 1.789-1.789h31.378c.988 0 1.789.801 1.789 1.789s-.801 1.789-1.789 1.789z" fill="#24202b"/><path d="m197.853 126.316h-14.306c-.988 0-1.789-.801-1.789-1.789s.801-1.789 1.789-1.789h14.306c.988 0 1.789.801 1.789 1.789s-.801 1.789-1.789 1.789z" fill="#24202b"/><path d="m111.643 238.131c-.723 0-1.403-.441-1.674-1.156-.35-.924.116-1.957 1.04-2.307 21.764-8.236 36.345-29.421 39.003-56.67.096-.983.954-1.695 1.954-1.607.983.096 1.703.971 1.606 1.955-2.793 28.635-18.231 50.941-41.297 59.669-.208.079-.422.116-.632.116z" fill="#24202b"/></svg>