<svg id="Layer_1" enable-background="new 0 0 256 256" height="512" viewBox="0 0 256 256" width="512" xmlns="http://www.w3.org/2000/svg"><path d="m154.188 210.398c0 10.989-8.901 19.894-19.891 19.894h-53.567c-10.989 0-19.894-8.905-19.894-19.894v-148.234c0-10.987 8.904-19.894 19.894-19.894h53.566c10.989 0 19.891 8.906 19.891 19.894v148.234z" fill="#14a2ff"/><path d="m134.297 42.271h-6.224c10.988 0 19.894 8.906 19.894 19.894v148.234c0 10.989-8.905 19.894-19.894 19.894h6.224c10.989 0 19.891-8.905 19.891-19.894v-148.235c0-10.987-8.902-19.893-19.891-19.893z" fill="#b8dff4"/><path d="m80.73 42.271h13.926c-10.988 0-19.894 8.906-19.894 19.894v148.234c0 10.989 8.905 19.894 19.894 19.894h-13.926c-10.989 0-19.894-8.905-19.894-19.894v-148.235c.001-10.987 8.905-19.893 19.894-19.893z" fill="#098dd6"/><path d="m134.297 232.081h-53.567c-11.956 0-21.683-9.727-21.683-21.683v-148.234c0-11.956 9.727-21.683 21.683-21.683h53.566c11.954 0 21.68 9.727 21.68 21.683v12.45c0 .988-.801 1.789-1.789 1.789s-1.789-.801-1.789-1.789v-12.45c0-9.983-8.12-18.104-18.102-18.104h-53.566c-9.982 0-18.104 8.122-18.104 18.104v148.234c0 9.983 8.122 18.105 18.104 18.105h53.566c9.981 0 18.102-8.122 18.102-18.105v-25.372c0-.988.801-1.789 1.789-1.789s1.789.801 1.789 1.789v25.372c.001 11.956-9.725 21.683-21.679 21.683z" fill="#24202b"/><path d="m142.24 188.215c0 4.376-3.576 7.958-7.958 7.958h-51.561c-4.376 0-7.958-3.582-7.958-7.958v-118.582c0-4.375 3.582-7.958 7.958-7.958h51.561c4.382 0 7.958 3.583 7.958 7.958z" fill="#fa759e"/><path d="m134.282 196.173c4.382 0 7.958-3.582 7.958-7.958v-33.575l-28.622 41.533z" fill="#fa759e"/><path d="m142.24 69.633c0-4.375-3.576-7.958-7.958-7.958h-5.208l-54.312 77.376v49.164c0 1.939.729 3.699 1.895 5.087l65.583-96.304z" fill="#fa759e"/><path d="m82.721 61.675c-4.376 0-7.958 3.583-7.958 7.958v25.034l23.395-32.992z" fill="#fa759e"/><path d="m76.657 193.302c1.463 1.737 3.627 2.871 6.063 2.871h30.897l28.622-41.533v-57.642z" fill="#dd5e8c"/><path d="m98.157 61.675-23.394 32.992v44.384l54.311-77.376z" fill="#dd5e8c"/><path d="m134.282 197.962h-51.561c-2.845 0-5.554-1.279-7.432-3.508-1.516-1.804-2.315-3.96-2.315-6.239v-118.582c0-5.375 4.372-9.747 9.747-9.747h51.562c5.375 0 9.747 4.373 9.747 9.747 0 .988-.801 1.789-1.789 1.789s-1.789-.801-1.789-1.789c0-3.401-2.768-6.169-6.169-6.169h-51.562c-3.401 0-6.169 2.768-6.169 6.169v118.583c0 1.801.803 3.134 1.476 3.936 1.194 1.418 2.906 2.233 4.693 2.233h51.562c3.401 0 6.169-2.768 6.169-6.169 0-.988.801-1.789 1.789-1.789s1.789.801 1.789 1.789c-.001 5.374-4.373 9.746-9.748 9.746z" fill="#24202b"/><path d="m96.953 218.98c-2.975 0-5.395-2.42-5.395-5.395 0-2.977 2.42-5.399 5.395-5.399h22.136c2.979 0 5.402 2.422 5.402 5.399 0 2.975-2.424 5.395-5.402 5.395z" fill="#b8dff4"/><path d="m119.089 209.975c1.998 0 3.613 1.616 3.613 3.61 0 1.989-1.615 3.606-3.613 3.606h-22.136c-1.989 0-3.605-1.617-3.605-3.606 0-1.994 1.616-3.61 3.605-3.61zm0-3.579h-22.136c-3.961 0-7.184 3.225-7.184 7.188 0 3.961 3.223 7.184 7.184 7.184h22.136c3.966 0 7.191-3.223 7.191-7.184 0-3.963-3.225-7.188-7.191-7.188z" fill="#24202b"/><path d="m34.954 72.704c-.653-.001-1.255-.357-1.568-.931l-4.67-8.542-8.545-4.671c-.573-.314-.931-.916-.931-1.57s.357-1.256.931-1.57l8.545-4.672 4.67-8.542c.313-.574.915-.931 1.568-.931h.001c.653 0 1.256.357 1.569.93l4.677 8.543 8.538 4.673c.574.314.931.916.931 1.569 0 .654-.356 1.256-.931 1.569l-8.538 4.672-4.677 8.543c-.313.574-.916.93-1.57.93.001 0 .001 0 0 0z" fill="#b8dff4"/><path d="m34.955 43.062 4.928 9.003 8.998 4.924-8.998 4.923-4.928 9.003-4.921-9.003-9.005-4.923 9.005-4.924zm0-3.578c-1.309 0-2.513.714-3.14 1.862l-4.418 8.083-8.085 4.42c-1.147.628-1.861 1.832-1.861 3.14s.714 2.512 1.862 3.14l8.084 4.42 4.418 8.082c.627 1.148 1.831 1.862 3.139 1.862h.001c1.308 0 2.511-.713 3.139-1.86l4.425-8.084 8.079-4.421c1.147-.627 1.861-1.831 1.861-3.139s-.713-2.511-1.86-3.139l-8.08-4.421-4.425-8.084c-.628-1.147-1.831-1.861-3.139-1.861z" fill="#24202b"/><path d="m176.351 61.506c-.654 0-1.256-.357-1.569-.931l-3.549-6.492-6.488-3.548c-.574-.314-.931-.916-.931-1.57s.356-1.256.931-1.57l6.488-3.548 3.549-6.491c.313-.575.915-.932 1.569-.932s1.256.357 1.569.931l3.55 6.491 6.494 3.548c.574.313.932.916.932 1.57s-.357 1.256-.932 1.57l-6.494 3.548-3.55 6.492c-.314.575-.915.932-1.569.932z" fill="#b8dff4"/><path d="m176.351 38.214 3.801 6.951 6.955 3.8-6.955 3.8-3.801 6.952-3.8-6.952-6.948-3.8 6.948-3.8zm0-3.578c-1.309 0-2.512.714-3.14 1.862l-3.297 6.031-6.028 3.297c-1.147.627-1.861 1.832-1.861 3.139 0 1.308.714 2.512 1.861 3.139l6.028 3.297 3.297 6.032c.627 1.149 1.831 1.862 3.14 1.862 1.308 0 2.512-.714 3.14-1.862l3.297-6.032 6.035-3.297c1.148-.627 1.862-1.831 1.862-3.14s-.714-2.513-1.862-3.14l-6.035-3.297-3.297-6.031c-.629-1.146-1.833-1.86-3.14-1.86z" fill="#24202b"/><path d="m118.324 119.55v53.651c0 2.526 2.044 4.571 4.568 4.571h70.632c2.526 0 4.562-2.045 4.562-4.571v-53.651z" fill="#eee"/><path d="m118.324 119.55v53.651c0 2.526 2.044 4.571 4.568 4.571h8.168v-58.222z" fill="#c2cbe8"/><path d="m109.659 119.55c-2.512 0-2.883-1.173-.824-2.61l45.624-31.835c2.059-1.437 5.433-1.437 7.491 0l45.632 31.835c2.053 1.437 1.688 2.61-.823 2.61z" fill="#7fd57a"/><path d="m123.662 116.939 41.956-29.274-3.668-2.561c-2.059-1.437-5.433-1.437-7.491 0l-45.624 31.835c-2.059 1.437-1.688 2.61.824 2.61h14.819c-2.511.001-2.882-1.172-.816-2.61z" fill="#1d966a"/><path d="m189.585 177.752v-21.53c0-6.622-5.363-11.983-11.983-11.983-6.621 0-11.983 5.361-11.983 11.983v21.53z" fill="#ff8b38"/><path d="m191.374 179.541h-27.545v-23.319c0-7.594 6.179-13.772 13.772-13.772s13.772 6.178 13.772 13.772v23.319zm-23.967-3.578h20.389v-19.741c0-5.621-4.573-10.194-10.194-10.194s-10.194 4.573-10.194 10.194v19.741z" fill="#24202b"/><path d="m157.667 156.432c0 2.518-2.05 4.566-4.567 4.566h-22.039c-2.526 0-4.569-2.047-4.569-4.566v-22.042c0-2.522 2.043-4.565 4.569-4.565h22.039c2.518 0 4.567 2.043 4.567 4.565z" fill="#14a2ff"/><g fill="#24202b"><path d="m153.1 162.786h-22.039c-3.506 0-6.358-2.851-6.358-6.354v-22.042c0-3.504 2.853-6.354 6.358-6.354h22.039c3.505 0 6.356 2.851 6.356 6.354v22.042c0 3.504-2.852 6.354-6.356 6.354zm-22.039-31.173c-1.533 0-2.78 1.246-2.78 2.776v22.042c0 1.531 1.247 2.776 2.78 2.776h22.039c1.532 0 2.778-1.246 2.778-2.776v-22.041c0-1.531-1.246-2.776-2.778-2.776h-22.039z"/><path d="m157.667 147.197h-31.176c-.988 0-1.789-.801-1.789-1.789s.801-1.789 1.789-1.789h31.176c.988 0 1.789.801 1.789 1.789s-.801 1.789-1.789 1.789z"/><path d="m142.08 162.786c-.988 0-1.789-.801-1.789-1.789v-31.173c0-.988.801-1.789 1.789-1.789s1.789.801 1.789 1.789v31.173c0 .988-.801 1.789-1.789 1.789z"/><path d="m193.524 179.562h-70.632c-3.506 0-6.357-2.854-6.357-6.36v-53.652c0-.988.801-1.789 1.789-1.789h79.763c.988 0 1.789.801 1.789 1.789v53.651c0 3.507-2.85 6.361-6.352 6.361zm-73.411-58.223v51.862c0 1.534 1.247 2.782 2.779 2.782h70.632c1.529 0 2.773-1.248 2.773-2.782v-51.862z"/><path d="m206.759 121.339h-97.1c-2.643 0-3.543-1.098-3.833-2.02-.289-.921-.181-2.335 1.984-3.847l45.625-31.835c2.674-1.867 6.863-1.867 9.539 0 .81.565 1.008 1.681.442 2.491-.564.81-1.679 1.009-2.491.443-1.449-1.012-3.993-1.011-5.442 0l-44.699 31.189h95.208c-.295-.572-.271-1.284.124-1.847.566-.809 1.681-1.006 2.492-.44 2.161 1.514 2.27 2.928 1.979 3.848-.289.921-1.189 2.018-3.828 2.018zm.445-2.363h.01z"/><path d="m184.121 165.848c-.988 0-1.789-.801-1.789-1.789v-3.062c0-.988.801-1.789 1.789-1.789s1.789.801 1.789 1.789v3.062c0 .988-.801 1.789-1.789 1.789z"/></g><path d="m188.208 107.381s-.224-.094-.333-.156c-.109-.054-.318-.182-.318-.182-12.434-6.699-17.64-19.409-17.64-19.409l13.071-11.691 16.217 8.284.66.334 16.228 8.288-1.819 17.442c-.001 0-13.344 3.236-26.066-2.91z" fill="#ffdc00"/><path d="m188.208 107.381s-.224-.094-.333-.156c-.109-.054-.318-.182-.318-.182-12.434-6.699-17.64-19.409-17.64-19.409l13.071-11.691 16.217 8.284.66.334 16.228 8.288-1.819 17.442c-.001 0-13.344 3.236-26.066-2.91z" fill="#ffdc00"/><path d="m192.818 109.21c-1.532-.488-3.071-1.087-4.61-1.829 0 0-.224-.094-.333-.156-.109-.054-.318-.182-.318-.182-12.434-6.699-17.64-19.409-17.64-19.409l13.071-11.691 9.448 4.821-13.072 11.693s4.028 9.826 13.454 16.753z" fill="#e0bb07"/><path d="m200.696 85.039-2.485-1.271-19.475-9.951 4.694-9.189s9.457-7.907 18.828-3.12l14.229-32.297s2.044-5.812 10.849-2.463c0 0 .901.311 1.297.54.412.186 1.188.731 1.188.731 7.881 5.172 4.368 10.238 4.368 10.238l-17.828 30.455c9.372 4.786 8.502 17.081 8.502 17.081l-4.693 9.193z" fill="#ff8b38"/><path d="m224.166 33.131-14.23 32.301c-9.373-4.787-18.828 3.12-18.828 3.12l-4.694 9.19-7.678-3.925 4.694-9.189s9.457-7.907 18.828-3.12l14.229-32.297s2.044-5.812 10.849-2.463c0 0 .901.311 1.297.54.412.186 1.188.731 1.188.731.941.613 1.703 1.227 2.341 1.826-6.403-1.221-7.996 3.286-7.996 3.286z" fill="#e57225"/><path d="m205.617 112.945c-5.074 0-11.667-.809-18.164-3.942-.094-.042-.271-.122-.402-.19-.165-.085-.428-.244-.428-.244-12.766-6.875-18.139-19.714-18.361-20.257-.287-.701-.102-1.507.463-2.012l13.071-11.691c.55-.494 1.349-.595 2.006-.26l33.104 16.906c.659.336 1.043 1.043.966 1.779l-1.819 17.442c-.078.753-.622 1.375-1.357 1.553-.289.071-3.89.916-9.079.916zm-33.517-24.863c1.571 3.163 6.72 12.222 16.306 17.386.092.053.198.12.269.156.02.01.069.036.089.047.042.021.137.06.137.06.034.014.054.023.087.039 9.839 4.753 20.168 3.604 23.646 3.019l1.555-14.905-30.92-15.79z" fill="#24202b"/><path d="m220.171 96.775c-.28 0-.56-.066-.813-.196l-19.475-9.947c-.001 0-.001 0-.001 0l-21.96-11.221c-.879-.45-1.229-1.527-.778-2.407l4.694-9.189c.109-.214.261-.404.445-.559.399-.333 9.385-7.707 19.059-4.103l13.49-30.619c.194-.501 1.147-2.622 3.731-3.82 2.528-1.173 5.693-1.052 9.409.362.188.064.968.341 1.479.621.517.25 1.193.715 1.397.858 3.28 2.152 5.236 4.646 5.769 7.383.543 2.797-.616 4.814-.908 5.265l-16.901 28.872c8.589 5.727 7.877 17.326 7.84 17.845-.017.239-.082.473-.19.687l-4.693 9.193c-.216.423-.591.742-1.042.889-.181.057-.367.086-.552.086zm-18.66-13.329 17.881 9.132 3.7-7.248c.036-1.893-.17-11.26-7.543-15.026-.438-.224-.766-.619-.903-1.091-.139-.472-.076-.981.173-1.406l17.828-30.455c.023-.04.048-.078.074-.116.226-.351 2.17-3.753-3.88-7.723-.379-.264-.807-.534-.943-.596-.054-.024-.11-.053-.161-.083-.131-.075-.6-.264-.983-.397-2.793-1.061-5.085-1.22-6.684-.48-1.423.661-1.89 1.834-1.894 1.846-.015.043-.032.086-.051.128l-14.229 32.297c-.198.451-.573.799-1.037.964-.464.166-.977.131-1.413-.092-7.371-3.765-15.082 1.549-16.602 2.693l-3.7 7.244z" fill="#24202b"/><path d="m178.434 99.984c-.48 0-.96-.193-1.312-.573-.671-.725-.628-1.856.097-2.528l15.541-14.399c.723-.671 1.855-.629 2.528.097.671.725.628 1.856-.097 2.528l-15.541 14.399c-.344.318-.781.476-1.216.476z" fill="#24202b"/><path d="m200.731 111c-.11 0-.222-.01-.334-.032-.971-.184-1.609-1.119-1.426-2.09l3.721-19.687c.184-.972 1.117-1.614 2.09-1.426.971.184 1.609 1.119 1.426 2.09l-3.721 19.687c-.162.859-.913 1.458-1.756 1.458z" fill="#24202b"/></svg>