<svg id="Layer_1" enable-background="new 0 0 256 256" height="512" viewBox="0 0 256 256" width="512" xmlns="http://www.w3.org/2000/svg"><path d="m184.243 249.09v-88.552c0-19.763-16.017-35.778-35.778-35.778h-76.289c-19.762 0-35.778 16.016-35.778 35.778v88.552z" fill="#14a2ff"/><path d="m36.398 183.493h29.18v65.597h-29.18z" fill="#f9b28a"/><path d="m36.398 183.493h11.299v65.597h-11.299z" fill="#f19d69"/><path d="m155.063 183.493h29.18v65.597h-29.18z" fill="#f9b28a"/><path d="m155.063 183.493h11.897v65.597h-11.897z" fill="#f19d69"/><path d="m148.465 124.76h-18.472v.154l-19.093 14.972-.575 3.532-.575-3.532-19.11-14.98v-.146h-18.464c-19.762 0-35.778 16.016-35.778 35.778v22.955h29.18v65.597h89.484v-65.597h29.18v-22.955c.001-19.763-16.015-35.778-35.777-35.778z" fill="#7d50c7"/><path d="m109.749 139.886.575 3.532.575-3.532 11.727-9.192v-6.61c-2.425.528-4.942.823-7.538.823h-9.535c-5.331 0-10.367-1.2-14.913-3.286v3.14.146z" fill="#f19d69"/><path d="m122.626 124.083c2.572-.562 5.036-1.395 7.367-2.463-2.33 1.068-4.802 1.901-7.367 2.463z" fill="#f9b28a"/><path d="m129.993 124.914v-.154-3.14c-2.331 1.068-4.795 1.9-7.367 2.463v6.61z" fill="#f9b28a"/><path d="m148.465 124.76h-3.768v21.948c0 18.989-15.395 34.372-34.38 34.372-18.977 0-34.372-15.383-34.372-34.372v-21.948h-3.769c-2.253 0-4.461.236-6.598.633v58.101 65.597h89.484v-65.597-58.101c-2.145-.397-4.344-.633-6.597-.633z" fill="none"/><path d="m129.955 124.946-.009-.04-19.101 14.98.047.054.008-.054z" fill="#603da3"/><path d="m148.465 124.76h-18.472v.154l-19.676 15.349-19.677-15.357v-.146h-18.464c-19.762 0-35.778 16.016-35.778 35.778v11.796c0-19.759 16.016-35.774 35.778-35.774h17.624c1.112 1.174 2.705 2.331 5.005 3.407 0 0-1.229 15.166 15.519 10.697 16.731 4.465 15.519-10.678 15.519-10.697l.007-.003c2.293-1.077 3.879-2.23 4.998-3.404h17.617c19.761 0 35.778 16.016 35.778 35.774v-11.796c0-19.763-16.016-35.778-35.778-35.778z" fill="#603da3"/><path d="m184.243 250.879h-147.845c-.988 0-1.789-.801-1.789-1.789v-88.552c0-20.715 16.853-37.567 37.567-37.567h18.464c.988 0 1.789.801 1.789 1.789s-.801 1.789-1.789 1.789h-18.464c-18.742 0-33.989 15.248-33.989 33.989v86.763h144.267v-63.808c0-.988.801-1.789 1.789-1.789s1.789.801 1.789 1.789v65.597c0 .988-.801 1.789-1.789 1.789z" fill="#24202b"/><path d="m148.465 124.76h-3.768v21.948c0 18.989-15.395 34.372-34.38 34.372-18.977 0-34.372-15.383-34.372-34.372v-21.948h-3.769c-2.253 0-4.461.236-6.598.633v58.101 65.597h89.484v-65.597-58.101c-2.145-.397-4.344-.633-6.597-.633z" fill="#eee"/><path d="m155.063 250.879h-89.484c-.988 0-1.789-.801-1.789-1.789v-123.697c0-.862.615-1.602 1.463-1.759 2.371-.44 4.7-.663 6.924-.663h3.769c.988 0 1.789.801 1.789 1.789v21.948c0 17.966 14.617 32.583 32.583 32.583 17.971 0 32.591-14.617 32.591-32.583v-21.948c0-.988.801-1.789 1.789-1.789h3.769c2.246 0 4.51.217 6.923.663.848.157 1.464.896 1.464 1.759v123.697c-.002.988-.803 1.789-1.791 1.789zm-87.695-3.578h85.906v-120.392c-1.655-.242-3.24-.36-4.809-.36h-1.979v20.159c0 19.939-16.226 36.161-36.169 36.161-19.939 0-36.161-16.222-36.161-36.161v-20.159h-1.979c-1.549 0-3.161.121-4.809.36z" fill="#24202b"/><path d="m110.325 145.207c-.877 0-1.625-.636-1.766-1.501l-.463-2.843-18.56-14.548c-.433-.339-.686-.858-.686-1.408v-3.286c0-.609.31-1.177.823-1.506.513-.33 1.158-.374 1.712-.12 4.516 2.072 9.283 3.123 14.167 3.123h9.535c2.367 0 4.775-.263 7.157-.782 2.412-.529 4.768-1.317 7.002-2.341.555-.254 1.199-.208 1.712.121s.823.896.823 1.506v3.294c0 .549-.252 1.068-.685 1.408l-18.544 14.541-.463 2.843c-.139.863-.887 1.499-1.764 1.499zm-17.255-20.669 17.255 13.526 17.273-13.544c-1.499.531-3.033.97-4.588 1.311-.001 0-.001 0-.002 0-2.632.573-5.296.864-7.919.864h-9.535c-4.27 0-8.455-.724-12.484-2.157zm29.556-.455h.01z" fill="#24202b"/><path d="m110.325 182.784c-.988 0-1.789-.801-1.789-1.789v-37.577c0-.988.801-1.789 1.789-1.789s1.789.801 1.789 1.789v37.577c0 .988-.801 1.789-1.789 1.789z" fill="#24202b"/><path d="m90.64 124.906s-9.1 8.837 4.166 15.06c0 0-1.229 15.166 15.519 10.697v-10.398z" fill="#eee"/><path d="m104.709 153.278c-3.071 0-5.607-.824-7.579-2.469-3.496-2.917-4.067-7.532-4.127-9.739-4.161-2.177-6.542-4.909-7.082-8.132-.847-5.052 3.296-9.143 3.473-9.314.64-.623 1.641-.677 2.347-.127l19.685 15.359c.435.339.688.859.688 1.411v10.398c0 .811-.545 1.52-1.328 1.729-2.212.589-4.24.884-6.077.884zm-13.8-25.893c-.815 1.16-1.792 3.025-1.457 4.978.385 2.248 2.442 4.261 6.113 5.984.676.317 1.083 1.02 1.023 1.764-.003.047-.358 5.303 2.848 7.962 1.993 1.653 5.05 2.049 9.099 1.183v-8.117z" fill="#24202b"/><path d="m130.001 124.906s9.1 8.837-4.158 15.06c0 0 1.22 15.166-15.526 10.697v-10.398z" fill="#eee"/><path d="m115.933 153.278c-1.837 0-3.865-.295-6.077-.885-.783-.209-1.328-.918-1.328-1.729v-10.398c0-.551.254-1.071.688-1.411l19.685-15.359c.705-.549 1.707-.495 2.347.127.177.171 4.321 4.263 3.474 9.316-.54 3.222-2.918 5.954-7.076 8.13-.062 2.207-.635 6.822-4.133 9.74-1.972 1.645-4.51 2.469-7.58 2.469zm-3.827-4.022c4.048.868 7.106.471 9.101-1.183 3.208-2.66 2.856-7.916 2.853-7.968-.055-.74.352-1.442 1.023-1.758 3.677-1.726 5.733-3.744 6.11-5.999.325-1.942-.65-3.803-1.463-4.962l-17.625 13.752v8.118z" fill="#24202b"/><path d="m167.411 107.143h.032l-16.88-45.119-.046-.035c-2.277-17.562-17.26-31.15-35.452-31.15h-4.732-.04-4.764c-18.2 0-33.183 13.6-35.451 31.174l-.009.012-16.886 45.119h.031c-.567 1.037-.924 2.206-.924 3.474 0 4.001 3.249 7.242 7.242 7.242h24.735c5.946 4.406 13.289 7.048 21.262 7.048h9.536c7.973 0 15.316-2.642 21.262-7.048h24.766c4.002 0 7.242-3.241 7.242-7.242 0-1.269-.357-2.438-.924-3.475z" fill="#24202b"/><path d="m150.843 89.129c0 19.758-16.016 35.777-35.778 35.777h-9.536c-19.762 0-35.778-16.02-35.778-35.777v-22.513c0-19.759 16.016-35.778 35.778-35.778h9.536c19.762 0 35.778 16.019 35.778 35.778z" fill="#f19d69"/><path d="m115.065 30.838h-9.536c-.358 0-.691.047-1.041.058 19.272.557 34.728 16.315 34.728 35.721v22.513c0 19.408-15.457 35.164-34.728 35.724.35.013.683.054 1.041.054h9.536c19.762 0 35.778-16.02 35.778-35.777v-22.515c0-19.759-16.016-35.778-35.778-35.778z" fill="#f9b28a"/><path d="m110.293 30.838h-4.764c-19.715 0-35.693 15.939-35.771 35.63h4.764c19.709 0 35.686-15.938 35.771-35.63z" fill="#24202b"/><path d="m115.065 30.838h-4.757c.078 19.692 16.056 35.63 35.77 35.63h4.764c-.084-19.692-16.062-35.63-35.777-35.63z" fill="#24202b"/><path d="m115.065 126.695h-9.536c-20.714 0-37.567-16.852-37.567-37.566v-22.513c0-20.715 16.853-37.567 37.567-37.567h9.536c20.714 0 37.567 16.853 37.567 37.567v22.513c0 20.714-16.852 37.566-37.567 37.566zm-9.535-94.068c-18.742 0-33.989 15.248-33.989 33.989v22.513c0 18.741 15.247 33.988 33.989 33.988h9.536c18.742 0 33.989-15.247 33.989-33.988v-22.513c0-18.742-15.247-33.989-33.989-33.989z" fill="#24202b"/><path d="m130.218 20.627c-3.87-12.527-19.893-13.717-19.893-13.717s-16.017 1.19-19.894 13.717c0 0-41.381 2.688-12.302 34.138 0 0 7.298-17.885 32.196-17.885 24.899 0 32.203 17.885 32.203 17.885 29.072-31.45-12.31-34.138-12.31-34.138z" fill="#eee"/><path d="m143.46 23.82c-1.857-.812-3.776-1.43-5.572-1.884.155.38.326.745.451 1.157 0 .001 2.154.14 5.121.727z" fill="#c2cbe8"/><path d="m98.551 23.094c3.878-12.53 19.894-13.72 19.894-13.72s.545.043 1.445.183c-4.902-2.28-9.565-2.646-9.565-2.646s-16.017 1.189-19.894 13.716c0 0-41.381 2.688-12.302 34.138 0 0 .762-1.846 2.604-4.344-17.33-25.023 17.818-27.327 17.818-27.327z" fill="#c2cbe8"/><path d="m142.528 56.554c-.106 0-.212-.009-.319-.029-.602-.109-1.106-.518-1.337-1.084-.282-.68-7.229-16.772-30.547-16.772-16.277 0-24.625 8.028-28.153 12.813-.682.921-1.298 1.881-1.835 2.854-.014.028-.028.054-.037.071-.184.342-.31.592-.393.767-.004.01-.041.09-.046.1-.038.076-.062.133-.07.151-.23.568-.736.984-1.339 1.094-.604.107-1.221-.09-1.637-.54-9.247-10-12.598-18.422-9.959-25.032 3.709-9.292 17.976-11.529 22.261-11.996 4.743-12.469 20.392-13.774 21.076-13.825.091-.006.183-.006.273.001.202.016 5.009.418 10.122 2.782.026.012.051.024.077.037 5.404 2.523 9.056 6.223 10.871 11.009 1.412.159 3.929.514 6.797 1.247.01.003.02.005.03.008.01.002.02.005.03.008.931.238 1.853.508 2.743.802.029.008.058.017.086.026 7.249 2.414 11.764 6.347 13.056 11.373 1.637 6.37-1.874 14.296-10.435 23.559-.343.371-.821.576-1.315.576zm-32.207-47.847c-1.5.155-14.897 1.836-18.182 12.449-.219.708-.853 1.208-1.592 1.256-.169.011-16.923 1.217-20.371 9.867-1.93 4.843.618 11.357 7.574 19.384.48-.798.994-1.564 1.542-2.306 3.926-5.326 13.181-14.266 31.031-14.266 20.417 0 29.525 11.409 32.594 16.556 6.451-7.453 9.106-13.615 7.893-18.335-1.224-4.76-6.445-7.434-10.644-8.843-.029-.008-.058-.017-.086-.026-.845-.282-1.724-.54-2.611-.765-.02-.005-.039-.01-.058-.016-3.973-1.013-7.283-1.248-7.316-1.25-.738-.05-1.371-.55-1.588-1.258-1.339-4.344-4.495-7.7-9.381-9.976-.022-.01-.045-.021-.067-.033-4.043-1.864-7.957-2.355-8.738-2.438z" fill="#24202b"/><path d="m196.824 208.645h-5.059l-1.064-6.271c-.443-6.057-4.779-10.674-10.67-10.674h-13.071v46.721c0 5.89 4.779 10.67 10.669 10.67h19.194c5.891 0 10.67-4.78 10.67-10.67v-19.105c.001-5.896-4.778-10.671-10.669-10.671z" fill="#1d966a"/><path d="m196.824 208.645h-5.059l-1.064-6.271c-.443-6.057-4.779-10.674-10.67-10.674h-8.975c5.89 0 10.219 4.617 10.669 10.674l1.065 6.271h5.059c5.891 0 10.669 4.775 10.669 10.67v19.105c0 5.89-4.779 10.67-10.669 10.67h8.975c5.891 0 10.67-4.78 10.67-10.67v-19.105c0-5.895-4.779-10.67-10.67-10.67z" fill="#7fd57a"/><path d="m198.34 169.63h-13.405-8.152-9.823v13.202h9.823 8.152 13.405c3.645 0 6.598-2.952 6.598-6.602 0-3.647-2.953-6.6-6.598-6.6z" fill="#eee"/><path d="m166.96 169.63h5.361v13.202h-5.361z" fill="#c2cbe8"/><path d="m216.051 172.676h-8.37v7.106h8.37c1.958 0 3.551-1.589 3.551-3.552 0-1.96-1.593-3.554-3.551-3.554z" fill="#fa759e"/><path d="m205.178 194.699-4.352-12.294c-.699.253-1.445.412-2.238.412h-4.01l4.912 13.895c.551 1.57 2.277 2.394 3.847 1.842 1.569-.556 2.393-2.278 1.841-3.855z" fill="#fa759e"/><path d="m185.113 182.832h-18.153v8.867h18.153c2.44 0 4.431-1.981 4.431-4.433 0-2.448-1.99-4.434-4.431-4.434z" fill="#eee"/><path d="m166.96 182.832h5.361v8.867h-5.361z" fill="#c2cbe8"/><g fill="#24202b"><path d="m196.824 250.879h-19.194c-6.87 0-12.458-5.589-12.458-12.459v-68.79c0-.988.801-1.789 1.789-1.789h31.38c4.625 0 8.387 3.764 8.387 8.39 0 2.931-1.464 5.488-3.717 6.983l3.854 10.889c.876 2.505-.439 5.256-2.93 6.138-1.212.427-2.517.356-3.674-.198-1.16-.555-2.033-1.527-2.458-2.738l-4.489-12.683h-2.571c.378.803.59 1.7.59 2.646 0 2.415-1.382 4.512-3.396 5.543 2.55 2.191 4.238 5.479 4.542 9.346l.797 4.7h3.548c6.87 0 12.459 5.589 12.459 12.459v19.105c0 6.869-5.589 12.458-12.459 12.458zm-28.074-79.46v67.001c0 4.897 3.984 8.881 8.88 8.881h19.194c4.897 0 8.881-3.984 8.881-8.881v-19.105c0-4.897-3.984-8.881-8.881-8.881h-5.059c-.873 0-1.618-.629-1.764-1.49l-1.064-6.271c-.01-.056-.017-.112-.021-.169-.388-5.308-4.042-9.015-8.886-9.015-.988 0-1.789-.801-1.789-1.789s.801-1.789 1.789-1.789h5.082c1.457 0 2.642-1.186 2.642-2.644 0-1.459-1.185-2.646-2.642-2.646-.988 0-1.789-.801-1.789-1.789s.801-1.789 1.789-1.789h9.465c.758 0 1.434.478 1.687 1.192l4.912 13.88c.109.312.331.558.626.699.296.142.63.16.94.051.634-.225.971-.932.746-1.576l-3.809-10.761c-.366.052-.73.078-1.092.078h-.109c-.981 0-1.779-.79-1.789-1.771s.771-1.787 1.752-1.807c2.639-.055 4.706-2.163 4.706-4.798 0-2.653-2.157-4.812-4.809-4.812h-29.588z"/><path d="m216.051 181.571h-8.37c-.988 0-1.789-.801-1.789-1.789v-7.106c0-.988.801-1.789 1.789-1.789h8.37c2.944 0 5.34 2.397 5.34 5.344 0 2.944-2.396 5.34-5.34 5.34zm-6.581-3.578h6.581c.972 0 1.762-.791 1.762-1.763 0-.974-.79-1.766-1.762-1.766h-6.581z"/><path d="m198.34 184.621h-31.38c-.988 0-1.789-.801-1.789-1.789s.801-1.789 1.789-1.789h31.38c.988 0 1.789.801 1.789 1.789s-.8 1.789-1.789 1.789z"/><path d="m181.267 193.488h-14.307c-.988 0-1.789-.801-1.789-1.789s.801-1.789 1.789-1.789h14.306c.988 0 1.789.801 1.789 1.789s-.8 1.789-1.788 1.789z"/></g><path d="m69.775 66.216h-6.178c-4.39 0-7.958 3.559-7.958 7.957v7.398c0 4.395 3.568 7.958 7.958 7.958h6.178z" fill="#f19d69"/><path d="m71.564 91.318h-7.967c-5.375 0-9.747-4.373-9.747-9.747v-7.398c0-5.374 4.373-9.746 9.747-9.746h7.967zm-7.967-23.313c-3.401 0-6.169 2.767-6.169 6.168v7.398c0 3.401 2.768 6.169 6.169 6.169h4.389v-19.735z" fill="#24202b"/><path d="m150.873 66.216h6.179c4.398 0 7.957 3.559 7.957 7.957v7.398c0 4.395-3.559 7.958-7.957 7.958h-6.179z" fill="#f19d69"/><path d="m157.052 91.318h-7.968v-26.891h7.968c5.374 0 9.746 4.372 9.746 9.746v7.398c0 5.375-4.372 9.747-9.746 9.747zm-4.389-3.578h4.39c3.401 0 6.168-2.768 6.168-6.169v-7.398c0-3.401-2.767-6.168-6.168-6.168h-4.39z" fill="#24202b"/></svg>