<svg id="Layer_1" enable-background="new 0 0 256 256" height="512" viewBox="0 0 256 256" width="512" xmlns="http://www.w3.org/2000/svg"><path d="m92.705 97.742s-38.957 45.458 0 48.531c0 0 42.988 0 0-48.531z" fill="#b8dff4"/><path d="m92.705 97.742s-2.21 2.589-5.044 6.549c24.941 31.266 9.687 39.255.267 41.283 1.457.308 3.011.56 4.777.699 0 0 42.988 0 0-48.531z" fill="#eee"/><path d="m93.493 130.696c0 2.876-2.335 5.215-5.212 5.215s-5.213-2.339-5.213-5.215c0-2.879 2.336-5.215 5.213-5.215s5.212 2.336 5.212 5.215z" fill="#eee"/><path d="m92.705 148.062c-.047 0-.094-.002-.141-.005-9.484-.749-15.493-4.032-17.859-9.759-6.146-14.876 15.708-40.631 16.641-41.72.336-.393.827-.621 1.344-.625.524-.005 1.011.215 1.354.603 16.267 18.365 22.428 32.313 18.312 41.459-4.472 9.933-19.034 10.047-19.651 10.047zm.047-47.55c-4.571 5.739-19.27 25.462-14.74 36.421 1.805 4.366 6.768 6.906 14.753 7.55.964-.018 12.944-.398 16.332-7.947 2.331-5.193 1.31-15.636-16.345-36.024z" fill="#24202b"/><path d="m118.427 102.429s-57.358 66.929 0 71.456c0 0 63.294 0 0-71.456z" fill="#b8dff4"/><path d="m118.427 102.429s-3.256 3.812-7.427 9.641c36.724 46.036 14.264 57.798.393 60.785 2.144.451 4.433.824 7.035 1.03-.001 0 63.293 0-.001-71.456z" fill="#eee"/><path d="m119.589 150.948c0 4.234-3.439 7.677-7.676 7.677-4.235 0-7.675-3.442-7.675-7.677 0-4.238 3.439-7.678 7.675-7.678 4.237 0 7.676 3.44 7.676 7.678z" fill="#eee"/><path d="m118.427 175.674c-.047 0-.094-.002-.141-.005-13.622-1.075-22.229-5.735-25.581-13.851-8.853-21.43 23.002-58.965 24.363-60.553.336-.393.827-.621 1.344-.625.528.01 1.011.216 1.354.603 23.71 26.769 32.735 47.001 26.823 60.136-6.361 14.132-27.275 14.295-28.162 14.295zm.044-70.486c-5.927 7.338-29.526 38.16-22.458 55.265 2.791 6.754 10.352 10.671 22.476 11.642 1.228-.019 19.595-.513 24.842-12.195 5.089-11.33-3.504-30.225-24.86-54.712z" fill="#24202b"/><path d="m88.949 73.722 40.938-34.822-50.624-18.048z" fill="#dd5e8c"/><path d="m45.999 121.954c1.916-26.449 17.399-50.035 40.324-62.58l-4.208-22.969c-33.117 15.065-55.867 47.377-58.521 83.925-3.986 55.065 37.57 103.11 92.632 107.101l1.624-22.401c-42.718-3.095-74.949-40.366-71.851-83.076z" fill="#dd5e8c"/><path d="m167.896 182.433-40.382 35.467 50.908 17.248z" fill="#dd5e8c"/><path d="m210.077 133.529c-1.496 26.477-16.61 50.307-39.329 63.206l4.572 22.906c32.876-15.59 55.113-48.255 57.188-84.842 3.116-55.116-39.197-102.505-94.318-105.625l-1.262 22.424c42.749 2.425 75.567 39.178 73.149 81.931z" fill="#dd5e8c"/><g fill="#24202b"><path d="m88.949 75.511c-.202 0-.405-.034-.601-.104-.602-.214-1.044-.734-1.159-1.363l-9.686-52.87c-.115-.628.114-1.271.601-1.685.488-.414 1.159-.537 1.76-.322l50.624 18.049c.602.214 1.044.734 1.159 1.363.115.628-.114 1.271-.601 1.685l-40.938 34.82c-.328.28-.741.427-1.159.427zm-7.367-51.934 8.569 46.774 36.218-30.806z"/><path d="m116.228 229.221c-.043 0-.087-.001-.131-.005-56.048-4.062-98.345-52.966-94.287-109.015 2.702-37.208 25.525-69.94 59.564-85.424.502-.229 1.081-.212 1.569.042.489.255.832.721.932 1.264l4.208 22.969c.139.759-.224 1.521-.901 1.892-22.461 12.291-37.558 35.719-39.399 61.14-1.463 20.18 5.041 39.747 18.314 55.094 13.274 15.348 31.699 24.606 51.883 26.069.473.034.914.255 1.224.614.311.359.466.827.431 1.3l-1.624 22.401c-.069.94-.854 1.659-1.783 1.659zm-35.455-190.211c-31.692 15.312-52.844 46.313-55.395 81.449-3.872 53.483 36.005 100.225 89.194 105.042l1.366-18.836c-20.437-1.935-39.041-11.53-52.548-27.148-13.898-16.07-20.708-36.559-19.176-57.693 1.897-26.192 17.227-50.36 40.118-63.388zm-34.774 82.944h.01z"/><path d="m178.422 236.938c-.192 0-.386-.031-.574-.095l-50.908-17.248c-.605-.205-1.055-.717-1.18-1.344-.125-.626.094-1.272.574-1.694l40.382-35.468c.481-.422 1.15-.554 1.754-.35.605.205 1.056.717 1.181 1.344l10.526 52.716c.125.626-.094 1.272-.574 1.694-.332.291-.753.445-1.181.445zm-47.4-19.738 45.039 15.259-9.312-46.638z"/><path d="m175.321 221.431c-.275 0-.551-.063-.803-.19-.492-.248-.843-.708-.951-1.249l-4.572-22.906c-.151-.756.2-1.525.871-1.906 22.264-12.642 36.988-36.303 38.426-61.751 2.362-41.767-29.697-77.674-71.464-80.043-.986-.056-1.741-.9-1.685-1.887l1.262-22.424c.027-.474.24-.917.594-1.234.354-.316.82-.48 1.293-.452 56.109 3.176 99.176 51.406 96.003 107.512-2.112 37.243-24.416 70.333-58.208 86.357-.242.115-.504.173-.766.173zm-2.567-23.789 3.867 19.374c31.447-15.814 52.107-47.147 54.102-82.317 3.027-53.539-37.585-99.645-90.848-103.621l-1.061 18.855c42.859 3.389 75.489 40.558 73.049 83.697-1.481 26.22-16.426 50.626-39.109 64.012z"/></g><path d="m164.881 134.144h-5.06l-1.068-6.272c-.443-6.057-4.775-10.673-10.669-10.673h-13.071v46.72c0 5.892 4.78 10.67 10.674 10.67h19.195c5.891 0 10.669-4.778 10.669-10.67v-19.105c-.001-5.896-4.78-10.67-10.67-10.67z" fill="#1d966a"/><path d="m164.881 134.144h-5.06l-1.068-6.272c-.443-6.057-4.775-10.673-10.669-10.673h-8.976c5.894 0 10.223 4.616 10.669 10.673l1.069 6.272h5.059c5.89 0 10.669 4.774 10.669 10.669v19.105c0 5.892-4.779 10.67-10.669 10.67h8.976c5.891 0 10.669-4.778 10.669-10.67v-19.105c0-5.895-4.779-10.669-10.669-10.669z" fill="#7fd57a"/><path d="m166.396 95.129h-13.406-8.151-9.827v13.202h9.827 8.151 13.406c3.645 0 6.598-2.953 6.598-6.601 0-3.649-2.954-6.601-6.598-6.601z" fill="#eee"/><path d="m135.012 95.129h5.367v13.202h-5.367z" fill="#c2cbe8"/><path d="m184.102 98.175h-8.366v7.107h8.366c1.962 0 3.551-1.589 3.551-3.551.001-1.964-1.588-3.556-3.551-3.556z" fill="#fa759e"/><path d="m173.23 120.198-4.348-12.295c-.699.253-1.449.413-2.238.413h-4.01l4.908 13.895c.556 1.569 2.28 2.393 3.85 1.842 1.571-.557 2.395-2.279 1.838-3.855z" fill="#fa759e"/><path d="m153.166 108.331h-18.154v8.867h18.154c2.443 0 4.433-1.981 4.433-4.434 0-2.448-1.99-4.433-4.433-4.433z" fill="#eee"/><path d="m135.012 108.331h5.367v8.867h-5.367z" fill="#c2cbe8"/><path d="m164.881 176.377h-19.195c-6.872 0-12.463-5.589-12.463-12.459v-68.789c0-.988.801-1.789 1.789-1.789h31.384c4.625 0 8.387 3.764 8.387 8.391 0 2.93-1.463 5.486-3.717 6.981l3.851 10.891c.882 2.5-.431 5.252-2.927 6.137-2.501.875-5.251-.437-6.134-2.931l-4.486-12.688h-2.572c.379.803.59 1.699.59 2.644 0 2.416-1.383 4.515-3.399 5.545 2.55 2.191 4.237 5.477 4.542 9.343l.801 4.702h3.549c6.87 0 12.458 5.589 12.458 12.458v19.105c0 6.87-5.589 12.459-12.458 12.459zm-28.08-79.459v67c0 4.897 3.986 8.881 8.885 8.881h19.195c4.896 0 8.88-3.984 8.88-8.881v-19.105c0-4.896-3.984-8.88-8.88-8.88h-5.06c-.872 0-1.617-.629-1.764-1.489l-1.068-6.272c-.009-.056-.017-.113-.021-.17-.389-5.307-4.042-9.014-8.885-9.014-.988 0-1.789-.801-1.789-1.789s.801-1.789 1.789-1.789h5.083c1.458 0 2.644-1.187 2.644-2.646 0-1.458-1.186-2.644-2.644-2.644-.988 0-1.789-.801-1.789-1.789s.801-1.789 1.789-1.789h9.469c.758 0 1.434.478 1.687 1.193l4.908 13.88c.227.638.932.975 1.571.75.633-.225.969-.93.743-1.571l-3.807-10.766c-.366.052-.73.078-1.092.078h-.112c-.981 0-1.779-.79-1.789-1.771s.771-1.787 1.752-1.807c2.641-.055 4.709-2.162 4.709-4.797 0-2.654-2.157-4.812-4.809-4.812h-29.595z" fill="#24202b"/><path d="m184.103 107.07h-8.366c-.988 0-1.789-.801-1.789-1.789v-7.106c0-.988.801-1.789 1.789-1.789h8.366c2.945 0 5.34 2.397 5.34 5.345 0 2.944-2.396 5.339-5.34 5.339zm-6.577-3.578h6.577c.972 0 1.762-.79 1.762-1.762 0-.974-.791-1.767-1.762-1.767h-6.577z" fill="#24202b"/><path d="m166.396 110.12h-31.384c-.988 0-1.789-.801-1.789-1.789s.801-1.789 1.789-1.789h31.384c.988 0 1.789.801 1.789 1.789s-.801 1.789-1.789 1.789z" fill="#24202b"/><path d="m149.324 118.987h-14.312c-.988 0-1.789-.801-1.789-1.789s.801-1.789 1.789-1.789h14.312c.988 0 1.789.801 1.789 1.789s-.801 1.789-1.789 1.789z" fill="#24202b"/></svg>